<svg width="56" height="56" viewBox="0 0 56 56" fill="none" xmlns="http://www.w3.org/2000/svg">
<circle cx="28" cy="28" r="28" fill="#F7F7F7"/>
<g clip-path="url(#clip0_106_11239)">
<path d="M21.2502 35.7073C19.8522 35.6359 19.8785 33.6695 21.2502 33.6012C25.1357 33.6147 35.384 33.6048 39.393 33.6076C40.4896 33.6076 41.4277 32.8614 41.6743 31.7931L43.9508 21.9353C44.0812 21.3709 43.9496 20.7867 43.5899 20.3326C43.2302 19.8786 42.6917 19.6145 42.1125 19.6145C40.4997 19.6145 26.8096 19.5525 19.7976 19.5246L18.6861 15.4003C18.4192 14.4147 17.5198 13.7264 16.4988 13.7264H12.938C12.42 13.7264 12 14.1464 12 14.6644C12 15.1825 12.42 15.6024 12.938 15.6024H16.4988C16.6745 15.6024 16.8293 15.7209 16.875 15.8896L21.1439 31.7278C20.3933 31.755 19.6941 32.0603 19.164 32.5982C18.6069 33.1635 18.3078 33.9118 18.3216 34.7053C18.3492 36.2922 19.663 37.5832 21.2502 37.5832H22.618C22.4147 38.01 22.3005 38.487 22.3005 38.9903C22.3005 40.8006 23.7733 42.2734 25.5837 42.2734C27.394 42.2734 28.8668 40.8006 28.8668 38.9903C28.8668 38.487 28.7526 38.01 28.5493 37.5832H34.4722C34.2691 38.0098 34.155 38.4867 34.155 38.9898C34.155 40.8001 35.6278 42.2729 37.4381 42.2729C39.2484 42.2729 40.7213 40.8001 40.7213 38.9898C40.7213 38.4671 40.5978 37.9728 40.3796 37.5337C40.7508 37.4087 41.0184 37.0586 41.0184 36.6453C41.0184 36.1273 40.5984 35.7073 40.0804 35.7073H21.2502ZM26.9907 38.9904C26.9907 39.7663 26.3595 40.3975 25.5836 40.3975C24.8077 40.3975 24.1765 39.7663 24.1765 38.9904C24.1765 38.2149 24.8071 37.5839 25.5824 37.5833H25.5848C26.3601 37.5839 26.9907 38.2149 26.9907 38.9904ZM37.4381 40.397C36.6623 40.397 36.031 39.7657 36.031 38.9899C36.031 38.2216 36.65 37.5956 37.4153 37.5833H37.461C38.2264 37.5956 38.8454 38.2216 38.8454 38.9899C38.8453 39.7657 38.214 40.397 37.4381 40.397ZM42.1194 21.4974C42.1249 21.5044 42.1241 21.5077 42.1229 21.5131L41.1637 25.6669H37.9156L38.4687 21.4757L42.105 21.4903C42.1106 21.4904 42.1139 21.4904 42.1194 21.4974ZM32.4489 31.7316V27.5428H35.7758L35.223 31.7316H32.4489ZM27.7976 31.7316L27.2403 27.5428H30.5729V31.7316H27.7976ZM23.4795 31.7316H23.4765C23.2479 31.7315 23.0465 31.5773 22.987 31.3576L21.9589 27.5428H25.3477L25.905 31.7316H23.4795ZM26.9907 25.6669L26.4265 21.4272L30.5729 21.4439V25.6669H26.9907ZM32.4489 25.6669V21.4515L36.5775 21.4681L36.0234 25.6669H32.4489ZM24.533 21.4195L25.0981 25.6669H21.4532L20.3038 21.4025L24.533 21.4195ZM39.393 31.7316H37.1152L37.668 27.5428H40.7304L39.8464 31.3709C39.7974 31.5833 39.611 31.7316 39.393 31.7316Z" fill="#BDBDBD"/>
</g>
<defs>
<clipPath id="clip0_106_11239">
<rect width="32" height="32" fill="white" transform="translate(12 12)"/>
</clipPath>
</defs>
</svg>
