<svg width="56" height="56" viewBox="0 0 56 56" fill="none" xmlns="http://www.w3.org/2000/svg">
<circle cx="28" cy="28" r="28" fill="#F7F7F7"/>
<g clip-path="url(#clip0_106_11236)">
<path d="M19.7825 26.9565H13.0435C12.4672 26.9565 12 27.4238 12 28V41.478C12 42.0542 12.4672 42.5215 13.0435 42.5215H19.7825C20.3587 42.5215 20.826 42.0543 20.826 41.478V28C20.8259 27.4237 20.3587 26.9565 19.7825 26.9565ZM18.739 40.4345H14.0869V29.0435H18.739V40.4345Z" fill="#BDBDBD"/>
<path d="M31.3696 13.4786H24.6307C24.0544 13.4786 23.5872 13.9458 23.5872 14.5221V41.478C23.5872 42.0542 24.0543 42.5215 24.6307 42.5215H31.3697C31.9459 42.5215 32.4132 42.0543 32.4132 41.478V14.5221C32.4131 13.9458 31.9459 13.4786 31.3696 13.4786ZM30.3262 40.4345H25.6741V15.5656H30.3262V40.4345Z" fill="#BDBDBD"/>
<path d="M42.9565 20.2175H36.2176C35.6413 20.2175 35.1741 20.6847 35.1741 21.261V41.4779C35.1741 42.0542 35.6413 42.5214 36.2176 42.5214H42.9566C43.5328 42.5214 44.0001 42.0542 44.0001 41.4779V21.261C44 20.6848 43.5328 20.2175 42.9565 20.2175ZM41.9131 40.4345H37.261V22.3045H41.9131V40.4345Z" fill="#BDBDBD"/>
</g>
<defs>
<clipPath id="clip0_106_11236">
<rect width="32" height="32" fill="white" transform="translate(12 12)"/>
</clipPath>
</defs>
</svg>
