<svg width="266" height="230" viewBox="0 0 266 230" fill="none" xmlns="http://www.w3.org/2000/svg">
<ellipse cx="132.298" cy="187.76" rx="115.437" ry="17.5101" fill="#E3FFE7"/>
<path d="M111.366 160.931L109.195 171.79L100.947 165.182L104.574 157.928L111.366 160.931Z" fill="#3BB54A"/>
<path d="M123.38 171.79C121.251 167.288 117.579 163.698 113.03 161.671L111.366 160.931L109.195 171.79L100.947 165.182L97.6427 171.79L94.3389 165.182L86.091 171.79L83.9192 160.931L82.2558 161.671C78.5856 163.314 75.4685 165.983 73.2797 169.356C71.0909 172.73 69.9236 176.664 69.9185 180.685V187.963H125.367V180.685C125.371 177.61 124.692 174.572 123.38 171.79Z" fill="#D2FFD8"/>
<path d="M90.7119 157.928L94.3392 165.182L86.0912 171.79L83.9194 160.931L90.7119 157.928Z" fill="#3BB54A"/>
<path d="M110.696 118.652C110.026 116.697 108.911 114.926 107.439 113.477C105.786 111.819 103.74 110.608 101.492 109.957C99.2439 109.305 96.8672 109.235 94.5845 109.752C92.3017 110.269 90.1874 111.356 88.4394 112.913C86.6913 114.469 85.3667 116.444 84.5894 118.652C84.0503 120.132 83.7766 121.697 83.7808 123.272V129.349C85.239 129.971 86.8171 130.263 88.4015 130.203C89.9617 130.21 91.5157 130.008 93.0222 129.603C96.3492 128.702 98.9368 127.084 102.264 126.183C103.77 125.778 105.324 125.576 106.884 125.583C108.469 125.523 110.047 125.815 111.505 126.438V123.272C111.509 121.697 111.236 120.132 110.696 118.652Z" fill="#3BB54A"/>
<path d="M125.367 144.066H139.229V157.928H125.367V144.066Z" fill="#D2FFD8"/>
<path d="M148.471 144.066H162.333V157.928H148.471V144.066Z" fill="#D2FFD8"/>
<path d="M171.574 144.066H185.436V157.928H171.574V144.066Z" fill="#D2FFD8"/>
<path d="M148.471 118.652H162.333V132.514H148.471V118.652Z" fill="#D2FFD8"/>
<path d="M125.367 118.652H139.229V132.514H125.367V118.652Z" fill="#D2FFD8"/>
<path d="M171.574 118.652H185.436V132.514H171.574V118.652Z" fill="#D2FFD8"/>
<path d="M102.264 93.2378H116.126V107.1H102.264V93.2378Z" fill="#D2FFD8"/>
<path d="M148.471 93.2378H162.333V107.1H148.471V93.2378Z" fill="#D2FFD8"/>
<path d="M125.367 93.2378H139.229V107.1H125.367V93.2378Z" fill="#D2FFD8"/>
<path d="M171.574 93.2378H185.436V107.1H171.574V93.2378Z" fill="#D2FFD8"/>
<path d="M79.1599 93.2378H93.0221V107.1H79.1599V93.2378Z" fill="#D2FFD8"/>
<path d="M109.195 60.8928H190.057C192.508 60.8928 194.859 61.8665 196.592 63.5996C198.325 65.3327 199.299 67.6833 199.299 70.1343V79.3757H65.2979V70.1343C65.2979 67.6833 66.2715 65.3327 68.0046 63.5996C69.7377 61.8665 72.0883 60.8928 74.5393 60.8928H109.195Z" fill="#3BB54A"/>
<path d="M190.057 58.5824H180.816V51.6514H176.195V58.5824H157.712V51.6514H153.092V58.5824H134.609V51.6514H129.988V58.5824H111.505V51.6514H106.884V58.5824H88.4015V51.6514H83.7808V58.5824H74.5393C71.4756 58.5824 68.5374 59.7995 66.371 61.9659C64.2046 64.1323 62.9876 67.0705 62.9876 70.1342V162.549C62.9857 164.577 63.5197 166.569 64.5355 168.324L68.5324 166.014C67.9262 164.96 67.6076 163.765 67.6083 162.549V81.686H196.988V162.549C196.983 164.385 196.251 166.145 194.952 167.443C193.654 168.742 191.894 169.474 190.057 169.48H129.988V174.1H190.057C193.121 174.1 196.059 172.883 198.226 170.717C200.392 168.55 201.609 165.612 201.609 162.549V70.1342C201.609 67.0705 200.392 64.1323 198.226 61.9659C196.059 59.7995 193.121 58.5824 190.057 58.5824ZM196.988 77.0653H67.6083V70.1342C67.6138 68.2977 68.3458 66.5379 69.6444 65.2393C70.943 63.9406 72.7028 63.2086 74.5393 63.2032H83.7808V70.1342H88.4015V63.2032H106.884V70.1342H111.505V63.2032H129.988V70.1342H134.609V63.2032H153.092V70.1342H157.712V63.2032H176.195V70.1342H180.816V63.2032H190.057C191.894 63.2086 193.654 63.9406 194.952 65.2393C196.251 66.5379 196.983 68.2977 196.988 70.1342V77.0653Z" fill="#289B36"/>
<path d="M125.367 109.41H139.229C139.842 109.41 140.43 109.167 140.863 108.734C141.296 108.3 141.54 107.713 141.54 107.1V93.2378C141.54 92.6251 141.296 92.0375 140.863 91.6042C140.43 91.1709 139.842 90.9275 139.229 90.9275H125.367C124.754 90.9275 124.167 91.1709 123.734 91.6042C123.3 92.0375 123.057 92.6251 123.057 93.2378V107.1C123.057 107.713 123.3 108.3 123.734 108.734C124.167 109.167 124.754 109.41 125.367 109.41ZM127.678 95.5482H136.919V104.79H127.678V95.5482Z" fill="#3BB54A"/>
<path d="M148.471 109.41H162.333C162.946 109.41 163.533 109.167 163.967 108.734C164.4 108.3 164.643 107.713 164.643 107.1V93.2378C164.643 92.6251 164.4 92.0375 163.967 91.6042C163.533 91.1709 162.946 90.9275 162.333 90.9275H148.471C147.858 90.9275 147.27 91.1709 146.837 91.6042C146.404 92.0375 146.16 92.6251 146.16 93.2378V107.1C146.16 107.713 146.404 108.3 146.837 108.734C147.27 109.167 147.858 109.41 148.471 109.41ZM150.781 95.5482H160.023V104.79H150.781V95.5482Z" fill="#3BB54A"/>
<path d="M171.574 109.41H185.436C186.049 109.41 186.637 109.167 187.07 108.734C187.503 108.3 187.747 107.713 187.747 107.1V93.2378C187.747 92.6251 187.503 92.0375 187.07 91.6042C186.637 91.1709 186.049 90.9275 185.436 90.9275H171.574C170.962 90.9275 170.374 91.1709 169.941 91.6042C169.507 92.0375 169.264 92.6251 169.264 93.2378V107.1C169.264 107.713 169.507 108.3 169.941 108.734C170.374 109.167 170.962 109.41 171.574 109.41ZM173.885 95.5482H183.126V104.79H173.885V95.5482Z" fill="#3BB54A"/>
<path d="M95.3325 102.479V93.2378C95.3325 92.6251 95.0891 92.0375 94.6558 91.6042C94.2225 91.1709 93.6349 90.9275 93.0221 90.9275H79.16C78.5472 90.9275 77.9596 91.1709 77.5263 91.6042C77.093 92.0375 76.8496 92.6251 76.8496 93.2378V107.1C76.8496 107.713 77.093 108.3 77.5263 108.734C77.9596 109.167 78.5472 109.41 79.16 109.41H86.091V104.79H81.4703V95.5482H90.7118V102.479H95.3325Z" fill="#3BB54A"/>
<path d="M109.195 104.79V109.41H116.126C116.739 109.41 117.326 109.167 117.76 108.734C118.193 108.3 118.436 107.713 118.436 107.1V93.2378C118.436 92.6251 118.193 92.0375 117.76 91.6042C117.326 91.1709 116.739 90.9275 116.126 90.9275H102.264C101.651 90.9275 101.063 91.1709 100.63 91.6042C100.197 92.0375 99.9534 92.6251 99.9534 93.2378V102.479H104.574V95.5482H113.816V104.79H109.195Z" fill="#3BB54A"/>
<path d="M123.057 132.514C123.057 133.127 123.3 133.714 123.734 134.147C124.167 134.581 124.754 134.824 125.367 134.824H139.229C139.842 134.824 140.43 134.581 140.863 134.147C141.296 133.714 141.54 133.127 141.54 132.514V118.652C141.54 118.039 141.296 117.451 140.863 117.018C140.43 116.585 139.842 116.341 139.229 116.341H125.367C124.754 116.341 124.167 116.585 123.734 117.018C123.3 117.451 123.057 118.039 123.057 118.652V132.514ZM127.678 120.962H136.919V130.203H127.678V120.962Z" fill="#3BB54A"/>
<path d="M146.16 132.514C146.16 133.127 146.404 133.714 146.837 134.147C147.27 134.581 147.858 134.824 148.471 134.824H162.333C162.946 134.824 163.533 134.581 163.967 134.147C164.4 133.714 164.643 133.127 164.643 132.514V118.652C164.643 118.039 164.4 117.451 163.967 117.018C163.533 116.585 162.946 116.341 162.333 116.341H148.471C147.858 116.341 147.27 116.585 146.837 117.018C146.404 117.451 146.16 118.039 146.16 118.652V132.514ZM150.781 120.962H160.023V130.203H150.781V120.962Z" fill="#3BB54A"/>
<path d="M169.264 132.514C169.264 133.127 169.507 133.714 169.941 134.147C170.374 134.581 170.962 134.824 171.574 134.824H185.436C186.049 134.824 186.637 134.581 187.07 134.147C187.503 133.714 187.747 133.127 187.747 132.514V118.652C187.747 118.039 187.503 117.451 187.07 117.018C186.637 116.585 186.049 116.341 185.436 116.341H171.574C170.962 116.341 170.374 116.585 169.941 117.018C169.507 117.451 169.264 118.039 169.264 118.652V132.514ZM173.885 120.962H183.126V130.203H173.885V120.962Z" fill="#3BB54A"/>
<path d="M123.057 157.928C123.057 158.541 123.3 159.128 123.734 159.562C124.167 159.995 124.754 160.238 125.367 160.238H139.229C139.842 160.238 140.43 159.995 140.863 159.562C141.296 159.128 141.54 158.541 141.54 157.928V144.066C141.54 143.453 141.296 142.865 140.863 142.432C140.43 141.999 139.842 141.755 139.229 141.755H125.367C124.754 141.755 124.167 141.999 123.734 142.432C123.3 142.865 123.057 143.453 123.057 144.066V157.928ZM127.678 146.376H136.919V155.618H127.678V146.376Z" fill="#3BB54A"/>
<path d="M146.16 157.928C146.16 158.541 146.404 159.128 146.837 159.562C147.27 159.995 147.858 160.238 148.471 160.238H162.333C162.946 160.238 163.533 159.995 163.967 159.562C164.4 159.128 164.643 158.541 164.643 157.928V144.066C164.643 143.453 164.4 142.865 163.967 142.432C163.533 141.999 162.946 141.755 162.333 141.755H148.471C147.858 141.755 147.27 141.999 146.837 142.432C146.404 142.865 146.16 143.453 146.16 144.066V157.928ZM150.781 146.376H160.023V155.618H150.781V146.376Z" fill="#3BB54A"/>
<path d="M169.264 157.928C169.264 158.541 169.507 159.128 169.941 159.562C170.374 159.995 170.962 160.238 171.574 160.238H185.436C186.049 160.238 186.637 159.995 187.07 159.562C187.503 159.128 187.747 158.541 187.747 157.928V144.066C187.747 143.453 187.503 142.865 187.07 142.432C186.637 141.999 186.049 141.755 185.436 141.755H171.574C170.962 141.755 170.374 141.999 169.941 142.432C169.507 142.865 169.264 143.453 169.264 144.066V157.928ZM173.885 146.376H183.126V155.618H173.885V146.376Z" fill="#3BB54A"/>
<path d="M113.954 159.568L106.884 156.426V150.396C109.879 148.297 112.084 145.255 113.145 141.755H113.815C115.654 141.755 117.416 141.025 118.716 139.725C120.016 138.425 120.746 136.662 120.746 134.824C120.746 132.986 120.016 131.223 118.716 129.923C117.416 128.623 115.654 127.893 113.815 127.893V123.272C113.815 118.983 112.111 114.87 109.078 111.837C106.046 108.804 101.932 107.1 97.6428 107.1C93.3536 107.1 89.24 108.804 86.2071 111.837C83.1742 114.87 81.4703 118.983 81.4703 123.272V127.893C79.6321 127.893 77.8691 128.623 76.5693 129.923C75.2695 131.223 74.5392 132.986 74.5392 134.824C74.5392 136.662 75.2695 138.425 76.5693 139.725C77.8691 141.025 79.6321 141.755 81.4703 141.755H82.1403C83.2016 145.255 85.4063 148.297 88.4014 150.396V156.426L81.3086 159.568C77.2315 161.391 73.7687 164.355 71.3378 168.102C68.907 171.849 67.6117 176.218 67.6082 180.685V187.962C67.6082 188.575 67.8516 189.163 68.2848 189.596C68.7181 190.029 69.3058 190.273 69.9185 190.273H125.367C125.98 190.273 126.567 190.029 127.001 189.596C127.434 189.163 127.677 188.575 127.677 187.962V180.685C127.674 176.215 126.376 171.843 123.941 168.095C121.506 164.348 118.037 161.386 113.954 159.568ZM113.815 132.514C114.428 132.514 115.016 132.757 115.449 133.19C115.882 133.624 116.126 134.211 116.126 134.824C116.126 135.437 115.882 136.025 115.449 136.458C115.016 136.891 114.428 137.135 113.815 137.135V132.514ZM81.4703 137.135C80.8576 137.135 80.2699 136.891 79.8366 136.458C79.4034 136.025 79.1599 135.437 79.1599 134.824C79.1599 134.211 79.4034 133.624 79.8366 133.19C80.2699 132.757 80.8576 132.514 81.4703 132.514V137.135ZM108.733 162.294L107.67 167.608L103.858 164.535L105.66 160.931L108.733 162.294ZM86.091 123.272C86.091 120.209 87.3081 117.27 89.4745 115.104C91.6408 112.938 94.5791 111.721 97.6428 111.721C100.707 111.721 103.645 112.938 105.811 115.104C107.978 117.27 109.195 120.209 109.195 123.272V123.434C108.429 123.33 107.657 123.276 106.884 123.272C103.361 123.347 99.8977 124.199 96.7418 125.768C94.1497 127.075 91.3032 127.801 88.4014 127.893C87.6262 127.901 86.8523 127.831 86.091 127.685V123.272ZM86.091 137.135V132.352C86.8568 132.456 87.6286 132.51 88.4014 132.514C91.9246 132.439 95.3879 131.587 98.5438 130.019C101.136 128.711 103.982 127.985 106.884 127.893C107.659 127.885 108.433 127.955 109.195 128.101V137.135C109.195 140.198 107.978 143.136 105.811 145.303C103.645 147.469 100.707 148.686 97.6428 148.686C94.5791 148.686 91.6408 147.469 89.4745 145.303C87.3081 143.136 86.091 140.198 86.091 137.135ZM102.264 152.637V157.373L97.6428 166.615L93.0221 157.373V152.637C96.0378 153.53 99.2478 153.53 102.264 152.637ZM89.6259 160.931L91.4279 164.535L87.6159 167.608L86.5531 162.294L89.6259 160.931ZM123.057 185.652H72.2289V180.685C72.2367 177.3 73.1738 173.983 74.9378 171.094C76.7019 168.206 79.2253 165.857 82.2327 164.304L83.8269 172.252C83.9062 172.64 84.0839 173.001 84.3428 173.3C84.6017 173.599 84.9332 173.827 85.3055 173.962C85.557 174.054 85.823 174.101 86.091 174.1C86.6186 174.094 87.1297 173.915 87.5465 173.592L93.5535 168.763L95.5866 172.83C95.7805 173.208 96.075 173.526 96.4378 173.747C96.8006 173.969 97.2176 174.086 97.6428 174.086C98.068 174.086 98.485 173.969 98.8478 173.747C99.2106 173.526 99.5051 173.208 99.699 172.83L101.732 168.763L107.739 173.592C108.156 173.915 108.667 174.094 109.195 174.1C109.463 174.101 109.729 174.054 109.98 173.962C110.352 173.827 110.684 173.599 110.943 173.3C111.202 173.001 111.379 172.64 111.459 172.252L113.053 164.304C116.06 165.857 118.584 168.206 120.348 171.094C122.112 173.983 123.049 177.3 123.057 180.685V185.652Z" fill="#289B36"/>
<path d="M135.541 22.3868C133.75 22.3868 132.298 20.935 132.298 19.1442C132.298 17.3534 133.75 15.9016 135.541 15.9016C137.332 15.9016 138.784 17.3534 138.784 19.1442C138.784 20.935 137.332 22.3868 135.541 22.3868ZM135.541 18.0633C134.944 18.0633 134.46 18.5473 134.46 19.1442C134.46 19.7411 134.944 20.2251 135.541 20.2251C136.138 20.2251 136.622 19.7411 136.622 19.1442C136.622 18.5473 136.138 18.0633 135.541 18.0633Z" fill="#3BB54A"/>
<path d="M108.952 209.161C106.803 209.161 105.061 207.419 105.061 205.27C105.061 203.121 106.803 201.379 108.952 201.379C111.101 201.379 112.843 203.121 112.843 205.27C112.843 207.419 111.101 209.161 108.952 209.161ZM108.952 203.973C108.235 203.973 107.655 204.554 107.655 205.27C107.655 205.986 108.235 206.567 108.952 206.567C109.668 206.567 110.249 205.986 110.249 205.27C110.249 204.554 109.668 203.973 108.952 203.973Z" fill="#3BB54A"/>
<path d="M27.0069 101.232C27.0069 100.575 26.4748 100.043 25.8185 100.043H24.5351C23.8788 100.043 23.3467 100.575 23.3467 101.232C23.3467 101.888 23.8788 102.42 24.5351 102.42H25.8185C26.4748 102.42 27.0069 101.888 27.0069 101.232Z" fill="#3BB54A"/>
<path d="M27.7438 100.519C28.4002 100.519 28.9323 99.9866 28.9323 99.3302V98.0469C28.8824 97.4277 28.365 96.9514 27.7438 96.9534C27.1227 96.9514 26.6053 97.4277 26.5554 98.0469V99.3302C26.5554 99.9866 27.0875 100.519 27.7438 100.519Z" fill="#3BB54A"/>
<path d="M30.9403 100.043H29.6569C29.0006 100.043 28.4685 100.575 28.4685 101.232C28.4685 101.888 29.0006 102.42 29.6569 102.42H30.9403C31.5966 102.42 32.1287 101.888 32.1287 101.232C32.1287 100.575 31.597 100.043 30.9403 100.043Z" fill="#3BB54A"/>
<path d="M27.7438 101.992C27.0875 101.992 26.5554 102.525 26.5554 103.181V104.464C26.6053 105.083 27.1227 105.56 27.7438 105.558C28.365 105.56 28.8824 105.083 28.9323 104.464V103.181C28.9323 102.525 28.4002 101.992 27.7438 101.992Z" fill="#3BB54A"/>
<path d="M239.722 122.67C239.722 122.014 239.19 121.482 238.534 121.482H237.25C236.594 121.482 236.062 122.014 236.062 122.67C236.062 123.327 236.594 123.859 237.25 123.859H238.534C239.19 123.859 239.722 123.327 239.722 122.67Z" fill="#36B546"/>
<path d="M240.447 121.933C241.103 121.933 241.635 121.401 241.635 120.745V119.474C241.591 118.85 241.072 118.367 240.447 118.368C239.822 118.367 239.302 118.85 239.259 119.474V120.745C239.259 121.401 239.791 121.933 240.447 121.933Z" fill="#36B546"/>
<path d="M243.655 121.482H242.372C241.716 121.482 241.184 122.014 241.184 122.67C241.184 123.327 241.716 123.859 242.372 123.859H243.655C244.312 123.859 244.844 123.327 244.844 122.67C244.844 122.014 244.312 121.482 243.655 121.482Z" fill="#36B546"/>
<path d="M240.447 123.407C239.791 123.407 239.259 123.939 239.259 124.596V125.879C239.308 126.498 239.826 126.974 240.447 126.973C241.068 126.974 241.586 126.498 241.635 125.879V124.596C241.635 123.939 241.103 123.407 240.447 123.407Z" fill="#36B546"/>
</svg>
