<svg width="229" height="198" viewBox="0 0 229 198" fill="none" xmlns="http://www.w3.org/2000/svg">
<ellipse cx="118" cy="164.5" rx="89" ry="13.5" fill="#E3FFE7"/>
<g clip-path="url(#clip0_91_941)">
<path d="M149 78.0668C149.014 85.6848 146.209 93.0386 141.126 98.7128L120.79 98.7335C119.011 98.7312 117.314 99.482 116.119 100.8L114.239 102.867L99.3793 102.846C87.7262 94.0911 83.7461 78.4006 89.817 65.1496C95.888 51.8986 110.37 44.6666 124.61 47.7747C138.851 50.8827 149.002 63.4913 149 78.0668Z" fill="#D2FFD8"/>
<path d="M111.8 92.5335C110.704 92.5332 109.653 92.0976 108.878 91.3224L102.678 85.1224C101.111 83.5006 101.134 80.9226 102.728 79.3282C104.322 77.7339 106.9 77.7115 108.522 79.2779L111.643 82.3965L127.327 64.9683C128.854 63.271 131.468 63.1332 133.165 64.6603C134.862 66.1875 135 68.8014 133.473 70.4987L114.873 91.1653C114.115 92.0087 113.043 92.5033 111.909 92.5335H111.8Z" fill="#2A9E38"/>
<path d="M93.8612 143.167C93.8645 143.715 93.7736 144.261 93.5925 144.779L90.5959 152.694C89.4784 155.186 86.6149 156.378 84.0596 155.414C81.5042 154.451 80.1396 151.666 80.9445 149.057L83.8585 141.327C84.0182 140.87 84.256 140.443 84.5612 140.067C85.8955 138.288 88.2186 137.562 90.3284 138.265C92.4381 138.968 93.8612 140.943 93.8612 143.167Z" fill="white"/>
<path d="M104.257 144.882C104.257 145.497 104.145 146.106 103.926 146.68L100.268 156.331C99.2636 159.002 96.2842 160.353 93.6133 159.349C90.9425 158.344 89.5916 155.365 90.596 152.694L93.5927 144.779L94.254 143.043C95.1343 140.702 97.5647 139.327 100.024 139.78C102.484 140.232 104.267 142.381 104.257 144.882Z" fill="white"/>
<path d="M122.133 156.001C122.134 156.615 122.022 157.225 121.803 157.799L120.542 161.147L119.612 163.586C118.542 166.149 115.636 167.408 113.034 166.435C110.432 165.462 109.065 162.606 109.94 159.969L112.172 154.058C113.095 151.758 115.523 150.437 117.956 150.912C120.389 151.386 122.142 153.522 122.133 156.001Z" fill="white"/>
<path d="M113.929 148.519C113.929 149.134 113.817 149.743 113.598 150.317L112.172 154.058L109.94 159.969C108.935 162.64 105.956 163.991 103.285 162.986C100.614 161.982 99.2634 159.002 100.268 156.331L103.926 146.68C104.806 144.339 107.237 142.965 109.696 143.417C112.156 143.87 113.939 146.019 113.929 148.519Z" fill="white"/>
<path d="M149.785 135.148C151.01 132.574 149.919 129.495 147.347 128.266L121.802 115.163L109.94 125.869C108.128 127.485 105.535 127.884 103.32 126.889C101.105 125.893 99.6832 123.688 99.6892 121.26C99.677 119.731 100.246 118.253 101.28 117.127L114.238 102.867L116.119 100.8C117.314 99.482 119.011 98.7312 120.79 98.7335L141.126 98.7128L153.133 98.6921L159.912 135.933H149.31C149.5 135.692 149.659 135.428 149.785 135.148Z" fill="white"/>
<path d="M177.933 98.7334V135.933C177.927 138.213 176.08 140.06 173.8 140.067H163.549C161.872 140.069 160.434 138.867 160.139 137.215L159.912 135.933L153.133 98.6921C152.947 97.6799 153.22 96.6371 153.879 95.8464C154.538 95.0557 155.514 94.599 156.543 94.6001H173.8C176.08 94.6069 177.927 96.4535 177.933 98.7334Z" fill="#60A917"/>
<path d="M149.785 135.148C149.659 135.428 149.5 135.692 149.31 135.933C147.872 137.985 145.155 138.686 142.903 137.587C144.7 138.448 145.842 140.265 145.838 142.257C145.834 143.028 145.665 143.79 145.342 144.489C144.485 146.29 142.665 147.433 140.671 147.424C139.907 147.42 139.153 147.251 138.46 146.928C140.621 147.974 141.776 150.371 141.248 152.714C140.721 155.056 138.649 156.726 136.249 156.745C135.478 156.741 134.716 156.572 134.017 156.249C135.817 157.106 136.96 158.926 136.951 160.919C136.948 161.69 136.778 162.452 136.455 163.151C135.869 164.384 134.815 165.333 133.527 165.786C132.239 166.24 130.824 166.162 129.594 165.569L120.542 161.147L121.803 157.799C122.022 157.225 122.134 156.615 122.133 156.001C122.142 153.522 120.389 151.386 117.956 150.912C115.523 150.437 113.095 151.758 112.172 154.058L113.598 150.317C113.817 149.743 113.929 149.134 113.929 148.519C113.939 146.019 112.156 143.869 109.696 143.417C107.237 142.965 104.806 144.339 103.926 146.68C104.145 146.106 104.257 145.497 104.257 144.882C104.267 142.381 102.484 140.232 100.024 139.78C97.5647 139.328 95.1342 140.702 94.2539 143.043L93.5926 144.779C93.7736 144.261 93.8645 143.716 93.8612 143.167C93.8612 140.943 92.4382 138.969 90.3284 138.265C88.2186 137.562 85.8956 138.288 84.5612 140.067H76.0879L82.8666 102.825L99.3792 102.846L114.239 102.867L101.281 117.127C100.246 118.253 99.677 119.731 99.6892 121.26C99.6832 123.688 101.105 125.893 103.32 126.889C105.535 127.884 108.128 127.485 109.94 125.869L121.803 115.163L147.347 128.266C149.919 129.495 151.01 132.574 149.785 135.148Z" fill="white"/>
<path d="M82.8667 102.825L76.088 140.067L75.8607 141.348C75.566 143 74.1285 144.202 72.4507 144.2H62.2C59.92 144.193 58.0735 142.347 58.0667 140.067V102.867C58.0735 100.587 59.92 98.7402 62.2 98.7334H79.4567C80.4859 98.7323 81.4624 99.189 82.1213 99.9797C82.7802 100.77 83.0533 101.813 82.8667 102.825Z" fill="#60A917"/>
<path d="M173.8 92.5334H156.547C154.045 92.5317 151.853 94.2108 151.203 96.6275H145.323C155.101 82.2918 152.133 62.837 138.527 52.0679C124.92 41.2989 105.304 42.8794 93.5974 55.6879C81.8907 68.4964 82.0763 88.1754 94.0225 100.761L84.7969 100.748C84.1423 98.3367 81.9516 96.6636 79.4525 96.6668H62.2C58.7758 96.6668 56 99.4426 56 102.867V140.067C56 143.491 58.7758 146.267 62.2 146.267H72.4465C74.9583 146.263 77.151 144.564 77.7827 142.133H81.3456L79.0123 148.333C78.3342 150.125 78.3975 152.113 79.1882 153.858C79.9789 155.604 81.432 156.962 83.2263 157.633C85.0474 158.31 87.0644 158.226 88.8228 157.4C88.8331 157.425 88.8373 157.45 88.8476 157.474C90.018 160.061 92.5931 161.723 95.432 161.725C96.49 161.722 97.5346 161.488 98.4927 161.039C98.4927 161.064 98.5072 161.089 98.5175 161.114C99.6882 163.699 102.262 165.36 105.1 165.363C106.159 165.36 107.204 165.126 108.163 164.677C108.173 164.701 108.175 164.726 108.185 164.749C109.387 167.417 112.079 169.098 115.004 169.008C117.929 168.917 120.512 167.073 121.546 164.336L121.67 164.009L128.697 167.44C129.67 167.914 130.738 168.16 131.82 168.161C132.634 168.159 133.441 168.019 134.209 167.748C136.027 167.113 137.514 165.772 138.332 164.028C139.156 162.27 139.246 160.256 138.582 158.431L138.654 158.406C140.473 157.761 141.959 156.415 142.781 154.669C143.602 152.922 143.692 150.919 143.029 149.106L143.096 149.084C144.915 148.439 146.401 147.093 147.223 145.346C148.045 143.6 148.135 141.597 147.473 139.784C148.52 139.41 149.467 138.8 150.24 138H158.217C158.849 140.431 161.042 142.13 163.553 142.133H173.8C177.224 142.133 180 139.358 180 135.933V98.7334C180 95.3093 177.224 92.5334 173.8 92.5334ZM89.0667 78.0668C89.0483 65.2754 97.4315 53.9899 109.683 50.313C121.935 46.6362 135.147 51.4405 142.175 62.1282C149.203 72.8159 148.379 86.8501 140.148 96.642L120.79 96.6668C118.43 96.6676 116.179 97.6624 114.59 99.4072L113.329 100.8L100.125 100.784C93.1231 95.3301 89.0398 86.9422 89.0667 78.0668ZM73.8291 140.98C73.7073 141.648 73.1255 142.133 72.4465 142.133H62.2C61.0586 142.133 60.1333 141.208 60.1333 140.067V102.867C60.1333 101.725 61.0586 100.8 62.2 100.8H79.4525C79.8687 100.799 80.2636 100.984 80.5303 101.303C80.797 101.623 80.9079 102.044 80.8331 102.453L73.8291 140.98ZM91.6025 144.179L89.8954 148.695L88.6554 151.965C88.2079 153.13 87.1047 153.914 85.8566 153.952C84.6086 153.99 83.4594 153.276 82.9411 152.14C82.6039 151.396 82.5794 150.548 82.8729 149.786L85.791 142.049C86.0736 141.29 86.6492 140.676 87.3885 140.346C87.792 140.161 88.2304 140.066 88.674 140.067C89.0581 140.067 89.439 140.137 89.7983 140.273C91.0029 140.726 91.7991 141.88 91.7947 143.167C91.7933 143.513 91.731 143.855 91.6107 144.179H91.6025ZM98.3336 155.592C97.892 156.767 96.785 157.56 95.5301 157.6C94.2751 157.639 93.1201 156.918 92.6048 155.773C92.2658 155.03 92.239 154.181 92.5304 153.417L93.8241 149.997L95.4733 145.709C95.4899 145.67 95.494 145.628 95.5085 145.589L96.1946 143.77C96.6521 142.564 97.8084 141.768 99.0983 141.77C100.112 141.769 101.062 142.266 101.639 143.1C102.217 143.934 102.348 144.997 101.992 145.946L98.3336 155.592ZM110.19 153.436L108.004 159.223C107.713 159.992 107.128 160.614 106.378 160.952C105.629 161.29 104.776 161.316 104.007 161.025C103.239 160.738 102.617 160.157 102.278 159.41C101.939 158.664 101.911 157.814 102.2 157.047L105.846 147.401C106.288 146.227 107.395 145.436 108.648 145.396C109.902 145.356 111.057 146.076 111.573 147.22C111.912 147.963 111.938 148.812 111.647 149.576L110.19 153.436ZM119.86 157.078L117.673 162.864C117.382 163.633 116.798 164.255 116.048 164.593C115.299 164.931 114.446 164.957 113.677 164.666C112.909 164.379 112.288 163.799 111.949 163.053C111.611 162.307 111.583 161.457 111.872 160.69L114.059 154.903C114.502 153.73 115.609 152.939 116.863 152.9C118.117 152.861 119.27 153.582 119.786 154.726C120.123 155.468 120.15 156.315 119.86 157.078ZM147.913 134.28C147.159 135.792 145.341 136.432 143.806 135.727L138.226 133.061C137.216 132.655 136.064 133.104 135.593 134.086C135.123 135.069 135.495 136.247 136.445 136.781L142.025 139.443L142.042 139.455C143.075 139.909 143.78 140.89 143.881 142.014C143.983 143.138 143.465 144.229 142.53 144.861C141.594 145.493 140.389 145.567 139.384 145.054L133.39 142.183C132.378 141.767 131.216 142.214 130.743 143.201C130.269 144.188 130.647 145.373 131.605 145.903L137.598 148.772C138.73 149.312 139.424 150.482 139.357 151.734C139.29 152.986 138.475 154.075 137.292 154.492C136.522 154.766 135.675 154.721 134.938 154.368H134.907L129.249 151.65C128.234 151.223 127.062 151.667 126.585 152.659C126.108 153.652 126.492 154.844 127.459 155.37L133.142 158.098C134.68 158.85 135.325 160.699 134.589 162.244C134.24 162.979 133.612 163.544 132.845 163.815C132.078 164.087 131.235 164.042 130.501 163.691L123.138 160.113L123.733 158.537C124.652 156.149 124.23 153.453 122.625 151.462C121.02 149.47 118.476 148.483 115.948 148.873C116.091 146.342 114.891 143.922 112.79 142.504C110.688 141.085 107.995 140.878 105.701 141.958C105.701 141.933 105.687 141.908 105.676 141.883C104.769 139.873 102.99 138.388 100.85 137.855C98.7091 137.321 96.442 137.796 94.6963 139.145C93.5106 137.349 91.5819 136.179 89.441 135.957C87.3 135.735 85.1725 136.485 83.6437 138H78.5721L84.5903 104.894L99.2636 104.913C99.3091 104.913 99.3545 104.936 99.4 104.936C99.4455 104.936 99.462 104.915 99.493 104.915L109.578 104.927L99.7596 115.728C96.8063 118.967 96.9103 123.953 99.996 127.067C103.082 130.181 108.067 130.33 111.333 127.406L122.133 117.654L146.458 130.128C148.004 130.875 148.654 132.732 147.913 134.28ZM152.253 133.867C152.671 130.792 151.073 127.794 148.287 126.427L125.409 114.69L127.649 112.667C128.465 111.895 128.515 110.614 127.763 109.78C127.011 108.947 125.73 108.867 124.88 109.6L108.572 124.327C106.944 125.777 104.466 125.698 102.933 124.148C101.4 122.598 101.349 120.119 102.816 118.507L117.653 102.181C118.459 101.299 119.6 100.798 120.794 100.8L141.047 100.773C141.134 100.778 141.221 100.778 141.308 100.773L151.406 100.761L157.428 133.867H152.253ZM175.867 135.933C175.867 137.075 174.941 138 173.8 138H163.553C162.875 138 162.293 137.515 162.171 136.847L155.167 98.3201C155.092 97.9108 155.203 97.4893 155.47 97.1699C155.736 96.8505 156.131 96.6661 156.547 96.6668H173.8C174.941 96.6668 175.867 97.5921 175.867 98.7334V135.933Z" fill="#2A9E38"/>
</g>
<path d="M116.734 18.9902C115.192 18.9902 113.941 17.7398 113.941 16.1975C113.941 14.6552 115.192 13.4048 116.734 13.4048C118.276 13.4048 119.527 14.6552 119.527 16.1975C119.527 17.7398 118.276 18.9902 116.734 18.9902ZM116.734 15.2666C116.22 15.2666 115.803 15.6834 115.803 16.1975C115.803 16.7116 116.22 17.1284 116.734 17.1284C117.248 17.1284 117.665 16.7116 117.665 16.1975C117.665 15.6834 117.248 15.2666 116.734 15.2666Z" fill="#3BB54A"/>
<path d="M93.8341 179.849C91.9834 179.849 90.4829 178.348 90.4829 176.497C90.4829 174.647 91.9834 173.146 93.8341 173.146C95.6849 173.146 97.1853 174.647 97.1853 176.497C97.1853 178.348 95.6849 179.849 93.8341 179.849ZM93.8341 175.38C93.2172 175.38 92.7171 175.881 92.7171 176.497C92.7171 177.114 93.2172 177.615 93.8341 177.615C94.451 177.615 94.9512 177.114 94.9512 176.497C94.9512 175.881 94.451 175.38 93.8341 175.38Z" fill="#3BB54A"/>
<path d="M23.2598 86.8951C23.2598 86.3299 22.8015 85.8716 22.2363 85.8716H21.131C20.5657 85.8716 20.1074 86.3299 20.1074 86.8951C20.1074 87.4604 20.5657 87.9186 21.131 87.9186H22.2363C22.8015 87.9186 23.2598 87.4604 23.2598 86.8951Z" fill="#3BB54A"/>
<path d="M23.8946 86.281C24.4599 86.281 24.9182 85.8228 24.9182 85.2575V84.1522C24.8752 83.619 24.4296 83.2088 23.8946 83.2105C23.3597 83.2088 22.914 83.619 22.8711 84.1522V85.2575C22.8711 85.8228 23.3294 86.281 23.8946 86.281Z" fill="#3BB54A"/>
<path d="M26.6474 85.8716H25.5421C24.9768 85.8716 24.5186 86.3299 24.5186 86.8951C24.5186 87.4604 24.9768 87.9186 25.5421 87.9186H26.6474C27.2126 87.9186 27.6709 87.4604 27.6709 86.8951C27.6709 86.3299 27.213 85.8716 26.6474 85.8716Z" fill="#3BB54A"/>
<path d="M23.8946 87.5503C23.3294 87.5503 22.8711 88.0086 22.8711 88.5738V89.6791C22.914 90.2124 23.3597 90.6226 23.8946 90.6209C24.4296 90.6226 24.8752 90.2124 24.9182 89.6791V88.5738C24.9182 88.0086 24.4599 87.5503 23.8946 87.5503Z" fill="#3BB54A"/>
<path d="M206.46 105.359C206.46 104.794 206.001 104.335 205.436 104.335H204.331C203.766 104.335 203.307 104.794 203.307 105.359C203.307 105.924 203.766 106.383 204.331 106.383H205.436C206.001 106.383 206.46 105.924 206.46 105.359Z" fill="#36B546"/>
<path d="M207.084 104.724C207.649 104.724 208.108 104.266 208.108 103.701V102.606C208.07 102.069 207.622 101.652 207.084 101.654C206.546 101.652 206.098 102.068 206.061 102.606V103.701C206.061 104.266 206.519 104.724 207.084 104.724Z" fill="#36B546"/>
<path d="M209.847 104.335H208.742C208.177 104.335 207.719 104.794 207.719 105.359C207.719 105.924 208.177 106.383 208.742 106.383H209.847C210.413 106.383 210.871 105.924 210.871 105.359C210.871 104.794 210.413 104.335 209.847 104.335Z" fill="#36B546"/>
<path d="M207.084 105.993C206.519 105.993 206.061 106.452 206.061 107.017V108.122C206.103 108.655 206.549 109.066 207.084 109.064C207.619 109.066 208.065 108.655 208.108 108.122V107.017C208.108 106.452 207.649 105.993 207.084 105.993Z" fill="#36B546"/>
<defs>
<clipPath id="clip0_91_941">
<rect width="124" height="124" fill="white" transform="translate(56 45)"/>
</clipPath>
</defs>
</svg>
