<svg width="56" height="56" viewBox="0 0 56 56" fill="none" xmlns="http://www.w3.org/2000/svg">
<circle cx="28" cy="28" r="28" fill="#F7F7F7"/>
<path d="M41.5956 22.1322L28.5579 12.8189C28.2241 12.5809 27.7761 12.5809 27.4423 12.8189L14.4055 22.1313C13.9009 22.4903 13.6001 23.0743 13.6001 23.6938V41.4401C13.6001 42.4986 14.4612 43.3601 15.5201 43.3601H40.4801C41.539 43.3601 42.4001 42.4986 42.4001 41.4401V23.6938C42.4001 23.0743 42.0993 22.4903 41.5956 22.1322ZM36.6401 41.4401H28.9601V33.7601H36.6401V41.4401ZM31.8401 31.8401H24.1601V24.1601H31.8401V31.8401ZM27.0401 33.7601V41.4401H19.3601V33.7601H27.0401ZM38.5601 41.4401V33.7601C38.5601 32.7015 37.699 31.8401 36.6401 31.8401H33.7601V24.1601C33.7601 23.1015 32.899 22.2401 31.8401 22.2401H24.1601C23.1012 22.2401 22.2401 23.1015 22.2401 24.1601V31.8401H19.3601C18.3012 31.8401 17.4401 32.7015 17.4401 33.7601V41.4401H15.5201V23.6938L28.0001 14.7793L40.4801 23.6938L40.4814 41.4401H38.5601Z" fill="#BDBDBD"/>
</svg>
