<svg width="56" height="56" viewBox="0 0 56 56" fill="none" xmlns="http://www.w3.org/2000/svg">
<circle cx="28" cy="28" r="28" fill="#F7F7F7"/>
<g clip-path="url(#clip0_106_11241)">
<path d="M33.3125 28.3125C34.0029 28.3125 34.5625 28.8721 34.5625 29.5625V33.3406C34.5625 33.7095 34.3994 34.0596 34.1169 34.2974L32.1143 35.9817C31.8799 36.1787 31.5942 36.2749 31.3103 36.2749C30.9541 36.2749 30.6003 36.1235 30.353 35.8296C29.9087 35.301 29.9768 34.5127 30.5051 34.0684L32.0625 32.7585V29.5625C32.0625 28.8721 32.6221 28.3125 33.3125 28.3125ZM42.75 23.375C42.0596 23.375 41.5 23.9346 41.5 24.625V26.5483C39.4966 24.1245 36.5007 22.6812 33.2844 22.6812C27.4067 22.6812 22.625 27.4629 22.625 33.3406C22.625 39.2183 27.4194 44 33.3125 44C34.9229 44 36.5146 43.6372 37.9561 42.9465C37.9805 42.9355 38.0049 42.9248 38.0288 42.9126C38.0354 42.9089 38.042 42.9043 38.0486 42.9006C38.2168 42.8179 38.3838 42.7319 38.5476 42.6401C39.1501 42.3032 39.3655 41.5415 39.0283 40.939C38.6914 40.3364 37.9299 40.1211 37.3274 40.458C36.1084 41.1396 34.7202 41.5 33.3125 41.5C28.7979 41.5 25.125 37.8396 25.125 33.3406C25.125 28.8416 28.7852 25.1812 33.2844 25.1812C35.8479 25.1812 38.2285 26.3792 39.7593 28.375H37.8125C37.1221 28.375 36.5625 28.9346 36.5625 29.625C36.5625 30.3154 37.1221 30.875 37.8125 30.875H40.25C42.3179 30.875 44 29.1929 44 27.125V24.625C44 23.9346 43.4404 23.375 42.75 23.375ZM41.8569 37.5576C41.2849 37.1711 40.5081 37.3218 40.1218 37.8943C39.7356 38.4668 39.8867 39.2437 40.4587 39.6299C40.6731 39.7744 40.9163 39.8438 41.157 39.8438C41.5588 39.8438 41.9524 39.6506 42.1943 39.2925C42.5798 38.7207 42.4294 37.9438 41.8569 37.5576ZM43.9568 33.6931C43.9487 33.6531 43.9387 33.6138 43.927 33.5745C43.915 33.5356 43.9014 33.4968 43.8857 33.4595C43.8701 33.4219 43.8525 33.3843 43.8333 33.3486C43.8137 33.3125 43.7932 33.2776 43.7708 33.2437C43.7483 33.2095 43.7231 33.1763 43.6975 33.145C43.6719 33.113 43.6438 33.0825 43.615 33.0537C43.5864 33.0249 43.5557 32.9968 43.5239 32.9712C43.4927 32.9451 43.4587 32.9207 43.425 32.8982C43.3914 32.8757 43.3557 32.8545 43.3201 32.8357C43.2837 32.8162 43.2468 32.7988 43.2095 32.7832C43.1719 32.7676 43.1331 32.7537 43.0945 32.7419C43.0549 32.73 43.0149 32.72 42.9756 32.7119C42.9355 32.7039 42.8943 32.6975 42.8538 32.6938C42.7725 32.6855 42.6899 32.6855 42.6082 32.6938C42.5676 32.6975 42.5269 32.7039 42.4868 32.7119C42.4468 32.72 42.407 32.73 42.3682 32.7419C42.3293 32.7537 42.2908 32.7676 42.2532 32.7832C42.2156 32.7988 42.1782 32.8162 42.1426 32.8357C42.1062 32.8545 42.0713 32.8757 42.0376 32.8982C42.0032 32.9207 41.97 32.9451 41.9387 32.9712C41.907 32.9968 41.8762 33.0249 41.8474 33.0537C41.8181 33.0825 41.7905 33.113 41.7644 33.145C41.7388 33.1763 41.7144 33.2095 41.6919 33.2437C41.6694 33.2776 41.6482 33.3125 41.6294 33.3486C41.6101 33.3843 41.5925 33.4219 41.5769 33.4595C41.5613 33.4968 41.5476 33.5356 41.5356 33.5745C41.5239 33.6138 41.5137 33.6531 41.5056 33.6931C41.4976 33.7332 41.4912 33.7744 41.4875 33.8145C41.4832 33.8557 41.4812 33.897 41.4812 33.9375C41.4812 33.978 41.4832 34.0193 41.4875 34.0605C41.4912 34.1006 41.4976 34.1418 41.5056 34.1819C41.5139 34.2212 41.5239 34.2612 41.5356 34.3005C41.5476 34.3394 41.5613 34.3782 41.5769 34.4155C41.5925 34.4531 41.6101 34.4907 41.6294 34.5264C41.6482 34.5618 41.6694 34.5974 41.6919 34.6313C41.7144 34.6655 41.7388 34.6987 41.7644 34.73C41.7905 34.762 41.8181 34.7925 41.8474 34.8213C41.8762 34.8501 41.907 34.8782 41.9387 34.9038C41.97 34.9294 42.0032 34.9543 42.0376 34.9768C42.0713 34.9993 42.1062 35.0205 42.1426 35.0393C42.1782 35.0588 42.2156 35.0762 42.2532 35.0918C42.2908 35.1074 42.3293 35.1213 42.3682 35.1331C42.407 35.145 42.447 35.155 42.4868 35.1631C42.5269 35.1711 42.5676 35.1775 42.6082 35.1812C42.6487 35.1855 42.6907 35.1875 42.7312 35.1875C42.772 35.1875 42.8132 35.1855 42.8538 35.1812C42.8943 35.1775 42.9358 35.1711 42.9756 35.1631C43.0151 35.155 43.0552 35.145 43.0945 35.1331C43.1331 35.1213 43.1719 35.1074 43.2095 35.0918C43.2468 35.0762 43.2837 35.0588 43.3201 35.0393C43.3557 35.0205 43.3914 34.9993 43.425 34.9768C43.4587 34.9543 43.4927 34.9294 43.5239 34.9038C43.5557 34.8782 43.5864 34.8501 43.615 34.8213C43.6438 34.7925 43.6719 34.762 43.6975 34.73C43.7231 34.6987 43.7483 34.6655 43.7708 34.6313C43.7932 34.5974 43.8137 34.5618 43.8333 34.5264C43.8525 34.4907 43.8701 34.4531 43.8857 34.4155C43.9014 34.3782 43.915 34.3394 43.927 34.3005C43.9387 34.2612 43.9487 34.2212 43.9568 34.1819C43.9651 34.1418 43.9712 34.1006 43.9751 34.0605C43.9795 34.0193 43.9812 33.978 43.9812 33.9375C43.9812 33.897 43.9795 33.8557 43.9751 33.8145C43.9712 33.7744 43.9648 33.7332 43.9568 33.6931ZM22.25 41.5H17C15.6216 41.5 14.5 40.3784 14.5 39V19.5C14.5 18.1216 15.6216 17 17 17H18.5625V18.25C18.5625 18.9404 19.1221 19.5 19.8125 19.5C20.5029 19.5 21.0625 18.9404 21.0625 18.25V17H26.6875V18.25C26.6875 18.9404 27.2471 19.5 27.9375 19.5C28.6279 19.5 29.1875 18.9404 29.1875 18.25V17H34.875V18.25C34.875 18.9404 35.4346 19.5 36.125 19.5C36.8154 19.5 37.375 18.9404 37.375 18.25V17H39C40.3784 17 41.5 18.1216 41.5 19.5C41.5 20.1904 42.0596 20.75 42.75 20.75C43.4404 20.75 44 20.1904 44 19.5C44 16.7429 41.7571 14.5 39 14.5H37.375V13.25C37.375 12.5596 36.8154 12 36.125 12C35.4346 12 34.875 12.5596 34.875 13.25V14.5H29.1875V13.25C29.1875 12.5596 28.6279 12 27.9375 12C27.2471 12 26.6875 12.5596 26.6875 13.25V14.5H21.0625V13.25C21.0625 12.5596 20.5029 12 19.8125 12C19.1221 12 18.5625 12.5596 18.5625 13.25V14.5H17C14.2429 14.5 12 16.7429 12 19.5V39C12 41.7571 14.2429 44 17 44H22.25C22.9404 44 23.5 43.4404 23.5 42.75C23.5 42.0596 22.9404 41.5 22.25 41.5Z" fill="#BDBDBD"/>
</g>
<defs>
<clipPath id="clip0_106_11241">
<rect width="32" height="32" fill="white" transform="translate(12 12)"/>
</clipPath>
</defs>
</svg>
