<svg width="56" height="56" viewBox="0 0 56 56" fill="none" xmlns="http://www.w3.org/2000/svg">
<circle cx="28" cy="28" r="28" fill="#F7F7F7"/>
<g clip-path="url(#clip0_106_11237)">
<path d="M41.1875 33.5424H41.058C42.1225 32.8953 42.8351 31.7243 42.8351 30.3901C42.8351 28.3575 41.1814 26.7038 39.1489 26.7038C37.1163 26.7038 35.4626 28.3575 35.4626 30.3901C35.4626 31.7243 36.1752 32.8952 37.2397 33.5424H37.1101C35.5593 33.5424 34.2976 34.8041 34.2976 36.3549V37.0672H32.5562C31.9713 37.0672 31.4953 36.5913 31.4953 36.0063V29.201H32.0727C33.6235 29.201 34.8852 27.9393 34.8852 26.3885V22.3945L36.6598 21.0163C37.0687 20.6986 37.1427 20.1097 36.8252 19.7008C36.5076 19.2919 35.9187 19.2179 35.5097 19.5354L34.8853 20.0204V15.5675C34.8853 14.0167 33.6236 12.755 32.0728 12.755H23.9274C22.3766 12.755 21.1149 14.0167 21.1149 15.5675V26.3884C21.1149 27.9392 22.3766 29.2009 23.9274 29.2009H24.5048V36.0063C24.5048 36.5913 24.0288 37.0672 23.4438 37.0672H21.7024V36.3549C21.7024 34.8041 20.4408 33.5424 18.8899 33.5424H18.7604C19.8249 32.8953 20.5374 31.7243 20.5374 30.3901C20.5374 28.3575 18.8837 26.7038 16.8512 26.7038C14.8186 26.7038 13.165 28.3575 13.165 30.3901C13.165 31.7243 13.8775 32.8952 14.9421 33.5424H14.8125C13.2617 33.5424 12 34.8041 12 36.3549V40.6908C12 42.0991 13.1458 43.2449 14.5541 43.2449H19.1484C20.5567 43.2449 21.7024 42.0991 21.7024 40.6908V38.9422H23.4438C25.0627 38.9422 26.3798 37.6251 26.3798 36.0063V29.201H29.6203V36.0065C29.6203 37.6253 30.9372 38.9423 32.5562 38.9423H34.2976V40.6909C34.2976 42.0993 35.4433 43.245 36.8516 43.245H41.4459C42.8542 43.245 44 42.0993 44 40.6909V36.355C44 34.8041 42.7383 33.5424 41.1875 33.5424ZM16.8512 28.5789C17.8499 28.5789 18.6624 29.3915 18.6624 30.3902C18.6624 31.389 17.8499 32.2015 16.8512 32.2015C15.8525 32.2015 15.04 31.389 15.04 30.3902C15.04 29.3915 15.8525 28.5789 16.8512 28.5789ZM19.8274 40.6908C19.8274 41.0652 19.5228 41.3699 19.1484 41.3699H14.5541C14.1796 41.3699 13.875 41.0652 13.875 40.6908V36.3549C13.875 35.838 14.2956 35.4174 14.8125 35.4174H18.8899C19.4069 35.4174 19.8274 35.838 19.8274 36.3549V40.6908ZM23.9274 27.326C23.4104 27.326 22.9899 26.9054 22.9899 26.3885V15.5675C22.9899 15.0506 23.4104 14.63 23.9274 14.63H32.0726C32.5896 14.63 33.0101 15.0506 33.0101 15.5675V21.4766L30.7198 23.2554H25.243C24.7253 23.2554 24.3055 23.6751 24.3055 24.1929C24.3055 24.7106 24.7253 25.1304 25.243 25.1304C25.243 25.1304 31.0411 25.1304 31.0418 25.1304C31.2323 25.1389 31.4331 25.0644 31.5863 24.9546C31.5963 24.9474 33.0101 23.8507 33.0101 23.8507V26.3884C33.0101 26.9054 32.5896 27.3259 32.0726 27.3259H23.9274V27.326ZM39.1488 28.5789C40.1475 28.5789 40.96 29.3915 40.96 30.3902C40.96 31.389 40.1475 32.2015 39.1488 32.2015C38.1501 32.2015 37.3376 31.389 37.3376 30.3902C37.3376 29.3915 38.1501 28.5789 39.1488 28.5789ZM42.125 40.6908C42.125 41.0652 41.8204 41.3699 41.4459 41.3699H36.8516C36.4772 41.3699 36.1726 41.0652 36.1726 40.6908V36.3549C36.1726 35.838 36.5931 35.4174 37.1101 35.4174H41.1875C41.7044 35.4174 42.125 35.838 42.125 36.3549V40.6908Z" fill="#BDBDBD"/>
<path d="M30.757 16.8257H25.2429C24.7252 16.8257 24.3054 17.2454 24.3054 17.7632C24.3054 18.2809 24.7252 18.7007 25.2429 18.7007H30.757C31.2747 18.7007 31.6945 18.2809 31.6945 17.7632C31.6945 17.2454 31.2747 16.8257 30.757 16.8257Z" fill="#BDBDBD"/>
<path d="M30.757 20.0405H25.2429C24.7252 20.0405 24.3054 20.4603 24.3054 20.978C24.3054 21.4958 24.7252 21.9155 25.2429 21.9155H30.757C31.2747 21.9155 31.6945 21.4958 31.6945 20.978C31.6945 20.4603 31.2747 20.0405 30.757 20.0405Z" fill="#BDBDBD"/>
</g>
<defs>
<clipPath id="clip0_106_11237">
<rect width="32" height="32" fill="white" transform="translate(12 12)"/>
</clipPath>
</defs>
</svg>
