<svg width="56" height="56" viewBox="0 0 56 56" fill="none" xmlns="http://www.w3.org/2000/svg">
<circle cx="28" cy="28" r="28" fill="#F7F7F7"/>
<path d="M17.2128 31.2758C15.0579 31.2758 12.944 30.4022 11.3971 28.8675C9.8513 27.334 9 25.2993 9 23.138C9 20.7595 10.0504 18.5078 11.8819 16.9603C13.7682 15.3665 16.2334 14.6983 18.6459 15.1269L34.9493 18.0247C35.4112 18.1068 35.748 18.5111 35.748 18.9836V27.2925C35.748 27.7649 35.4112 28.1693 34.9493 28.2513C30.9989 28.9535 27.9811 29.4917 25.668 29.9043C17.9903 31.2736 17.9903 31.2736 17.4359 31.2742C17.4051 31.2742 17.3721 31.2743 17.3339 31.2748C17.2936 31.2754 17.2532 31.2758 17.2128 31.2758ZM17.2097 16.9476C15.7299 16.9476 14.2852 17.4716 13.1247 18.4521C11.7322 19.6287 10.9336 21.3367 10.9336 23.138C10.9336 24.7735 11.5801 26.3156 12.7539 27.4802C13.9633 28.6798 15.6222 29.3531 17.3063 29.3276C17.3549 29.3269 17.3957 29.3269 17.4336 29.3268C17.8121 29.3264 17.9597 29.3013 25.3307 27.9867C27.4858 27.6023 30.2521 27.109 33.8144 26.4756V19.8004L18.3098 17.0447C17.9436 16.9796 17.5754 16.9476 17.2097 16.9476Z" fill="white"/>
<path d="M17.25 26.189C15.5796 26.189 14.2207 24.8204 14.2207 23.1381C14.2207 21.4558 15.5796 20.0872 17.25 20.0872C18.9204 20.0872 20.2793 21.4558 20.2793 23.1381C20.2793 24.8204 18.9204 26.189 17.25 26.189ZM17.25 22.0346C16.6458 22.0346 16.1543 22.5296 16.1543 23.1381C16.1543 23.7466 16.6458 24.2416 17.25 24.2416C17.8542 24.2416 18.3457 23.7466 18.3457 23.1381C18.3457 22.5296 17.8542 22.0346 17.25 22.0346Z" fill="white"/>
<path d="M41.0331 30.3434C40.9315 30.3434 40.8293 30.3272 40.7303 30.2944L34.4784 28.2171C34.0821 28.0855 33.8145 27.7126 33.8145 27.2925V18.9835C33.8145 18.5633 34.0821 18.1905 34.4784 18.0588L40.7303 15.9816C41.0248 15.8838 41.3484 15.9342 41.5997 16.1173C41.8511 16.3003 42 16.5938 42 16.9063V29.3697C42 29.6821 41.8511 29.9756 41.5997 30.1587C41.4327 30.2803 41.234 30.3434 41.0331 30.3434ZM35.748 26.5883L40.0664 28.0231V18.2528L35.748 19.6876V26.5883Z" fill="white"/>
<path d="M21.4506 42.8068C19.7404 42.8068 18.2865 41.5752 17.9935 39.8784L16.3683 30.4681C16.3198 30.1873 16.3959 29.899 16.5767 29.6796C16.7575 29.4602 17.0247 29.3315 17.3078 29.3277C17.8272 29.3206 17.908 29.3086 20.192 28.8989C20.7285 28.8026 21.383 28.6853 22.1892 28.542C22.4424 28.4972 22.7029 28.5554 22.9132 28.7042C23.1235 28.8531 23.2663 29.0802 23.31 29.3354L24.9086 38.6722C25.0849 39.7017 24.8027 40.7504 24.1344 41.5494C23.4662 42.3485 22.4879 42.8068 21.4506 42.8068ZM18.4535 31.1782L19.8985 39.5447C20.03 40.3065 20.6827 40.8594 21.4506 40.8594C21.9163 40.8594 22.3555 40.6536 22.6555 40.2949C22.9555 39.9362 23.0822 39.4654 23.0031 39.0032L21.5695 30.6302C21.1808 30.6996 20.8367 30.7613 20.531 30.8162C19.4861 31.0035 18.8741 31.1133 18.4535 31.1782Z" fill="white"/>
<path d="M27.0466 48C25.4185 48 23.8876 47.3649 22.7308 46.2084C21.5656 45.0436 20.9238 43.4761 20.9238 41.7948C20.9238 41.257 21.3567 40.8211 21.8906 40.8211C22.4246 40.8211 22.8574 41.257 22.8574 41.7948C22.8574 42.9532 23.2962 44.0299 24.0929 44.8263C24.8847 45.6178 25.9326 46.0526 27.0469 46.0526C27.0576 46.0526 27.0683 46.0526 27.079 46.0524C29.3713 46.0352 31.2363 44.1133 31.2363 41.7681V38.4576C31.2363 36.6321 32.711 35.147 34.5234 35.147C36.3359 35.147 37.8105 36.6321 37.8105 38.4576V47.0261C37.8105 47.5639 37.3777 47.9998 36.8438 47.9998C36.3098 47.9998 35.877 47.5639 35.877 47.0261V38.4576C35.877 37.7059 35.2697 37.0944 34.5234 37.0944C33.7771 37.0944 33.1699 37.7059 33.1699 38.4576V41.7681C33.1699 45.179 30.444 47.9745 27.0935 47.9998C27.0779 47.9999 27.0621 48 27.0466 48Z" fill="white"/>
</svg>
