<svg width="56" height="56" viewBox="0 0 56 56" fill="none" xmlns="http://www.w3.org/2000/svg">
<circle cx="28" cy="28" r="28" fill="#F7F7F7"/>
<path d="M40.7266 28.8545H37.2026C36.723 28.8545 36.2587 28.92 35.8168 29.0405C34.945 27.3269 33.1653 26.1494 31.1145 26.1494H24.8855C22.8347 26.1494 21.055 27.3269 20.1832 29.0405C19.7413 28.92 19.277 28.8545 18.7974 28.8545H15.2734C12.3657 28.8545 10 31.2201 10 34.1279V39.7612C10 41.5059 11.4194 42.9253 13.1641 42.9253H42.8359C44.5806 42.9253 46 41.5059 46 39.7612V34.1279C46 31.2201 43.6343 28.8545 40.7266 28.8545ZM19.6121 31.423V40.816H13.1641C12.5825 40.816 12.1094 40.3428 12.1094 39.7613V34.128C12.1094 32.3833 13.5288 30.9639 15.2734 30.9639H18.7974C19.0837 30.9639 19.3609 31.0028 19.6249 31.0745C19.6173 31.1898 19.6121 31.3059 19.6121 31.423ZM34.2786 40.816H21.7214V31.4229C21.7214 29.6783 23.1408 28.2589 24.8855 28.2589H31.1145C32.8592 28.2589 34.2786 29.6783 34.2786 31.4229V40.816ZM43.8906 39.7613C43.8906 40.3428 43.4175 40.816 42.8359 40.816H36.3879V31.4229C36.3879 31.3057 36.3827 31.1897 36.3751 31.0744C36.6391 31.0028 36.9163 30.9639 37.2026 30.9639H40.7266C42.4712 30.9639 43.8906 32.3832 43.8906 34.1279V39.7613Z" fill="#BDBDBD"/>
<path d="M17.0354 18.8948C14.4515 18.8948 12.3494 20.9969 12.3494 23.5808C12.3493 26.1647 14.4515 28.2669 17.0354 28.2669C19.6193 28.2669 21.7215 26.1647 21.7215 23.5808C21.7215 20.9969 19.6193 18.8948 17.0354 18.8948ZM17.0353 26.1575C15.6145 26.1575 14.4587 25.0016 14.4587 23.5808C14.4587 22.16 15.6145 21.0042 17.0353 21.0042C18.4561 21.0042 19.612 22.16 19.612 23.5808C19.612 25.0016 18.4561 26.1575 17.0353 26.1575Z" fill="#BDBDBD"/>
<path d="M28 13.0747C24.5479 13.0747 21.7395 15.8831 21.7395 19.3352C21.7395 22.7873 24.5479 25.5957 28 25.5957C31.452 25.5957 34.2605 22.7873 34.2605 19.3352C34.2605 15.8832 31.452 13.0747 28 13.0747ZM28 23.4863C25.711 23.4863 23.8489 21.6241 23.8489 19.3352C23.8489 17.0463 25.711 15.1841 28 15.1841C30.2889 15.1841 32.1511 17.0462 32.1511 19.3352C32.1511 21.6241 30.2889 23.4863 28 23.4863Z" fill="#BDBDBD"/>
<path d="M38.9646 18.8948C36.3808 18.8948 34.2786 20.9969 34.2786 23.5808C34.2786 26.1647 36.3808 28.2669 38.9646 28.2669C41.5485 28.2669 43.6507 26.1647 43.6507 23.5808C43.6507 20.9969 41.5485 18.8948 38.9646 18.8948ZM38.9646 26.1575C37.5439 26.1575 36.3879 25.0016 36.3879 23.5808C36.388 22.16 37.5439 21.0042 38.9646 21.0042C40.3854 21.0042 41.5413 22.16 41.5413 23.5808C41.5413 25.0016 40.3854 26.1575 38.9646 26.1575Z" fill="#BDBDBD"/>
</svg>
