<svg width="178" height="132" viewBox="0 0 178 132" fill="none" xmlns="http://www.w3.org/2000/svg">
<ellipse cx="89" cy="118.5" rx="89" ry="13.5" fill="#E3FFE7"/>
<path d="M121.83 45.0216L120.322 45.3411L122.066 45.8359C122.985 46.0965 123.686 46.8402 123.892 47.7726L124.216 49.2347L124.539 47.7726C124.745 46.8402 125.447 46.0965 126.365 45.8359L128.109 45.3411L126.601 45.0216C125.625 44.8147 124.853 44.0661 124.617 43.0963L124.216 41.4475L123.814 43.0963C123.578 44.0661 122.806 44.8147 121.83 45.0216Z" fill="#289B36"/>
<path d="M46.0533 87.5506L44.5452 87.8702L46.2892 88.3649C47.2079 88.6255 47.9093 89.3692 48.1154 90.3016L48.4388 91.7638L48.7622 90.3016C48.9683 89.3692 49.6697 88.6255 50.5883 88.3649L52.3324 87.8702L50.8243 87.5506C49.8478 87.3438 49.0766 86.5951 48.8403 85.6254L48.4388 83.9766L48.0372 85.6254C47.801 86.5954 47.0298 87.3438 46.0533 87.5506Z" fill="#289B36"/>
<path d="M39.4211 104.868H51.5347V120.442H39.4211V104.868Z" fill="#D2FFD8"/>
<path d="M51.5348 122H39.4212C38.5612 122 37.8638 121.302 37.8638 120.442V104.868C37.8638 104.008 38.5612 103.311 39.4212 103.311H51.5348C52.3948 103.311 53.0922 104.008 53.0922 104.868V120.442C53.0922 121.302 52.3948 122 51.5348 122ZM40.9787 118.885H49.9773V106.425H40.9787V118.885Z" fill="#289B36"/>
<path d="M63.6482 97.0806H75.7618V120.442H63.6482V97.0806Z" fill="#D2FFD8"/>
<path d="M75.7618 122H63.6483C62.7883 122 62.0908 121.302 62.0908 120.442V97.0806C62.0908 96.2207 62.7883 95.5232 63.6483 95.5232H75.7618C76.6218 95.5232 77.3193 96.2207 77.3193 97.0806V120.442C77.3193 121.302 76.6218 122 75.7618 122ZM65.2057 118.885H74.2044V98.6381H65.2057V118.885Z" fill="#289B36"/>
<path d="M87.8752 86.6978H99.9888V120.442H87.8752V86.6978Z" fill="#D2FFD8"/>
<path d="M99.9886 122H87.8751C87.0148 122 86.3176 121.302 86.3176 120.442V86.6976C86.3176 85.8376 87.0148 85.1401 87.8751 85.1401H99.9886C100.849 85.1401 101.546 85.8376 101.546 86.6976V120.442C101.546 121.302 100.849 122 99.9886 122ZM89.4328 118.885H98.4315V88.255H89.4328V118.885Z" fill="#289B36"/>
<path d="M112.102 65.9319H124.216V120.443H112.102V65.9319Z" fill="#D2FFD8"/>
<path d="M124.216 122H112.102C111.242 122 110.545 121.302 110.545 120.442V65.9317C110.545 65.0717 111.242 64.3743 112.102 64.3743H124.216C125.076 64.3743 125.773 65.0717 125.773 65.9317V120.442C125.773 121.302 125.076 122 124.216 122ZM113.66 118.885H122.658V67.4892H113.66V118.885Z" fill="#289B36"/>
<path d="M136.329 47.7617H148.442V120.443H136.329V47.7617Z" fill="#D2FFD8"/>
<path d="M148.442 122H136.329C135.469 122 134.771 121.302 134.771 120.442V47.7615C134.771 46.9016 135.469 46.2041 136.329 46.2041H148.442C149.302 46.2041 150 46.9016 150 47.7615V120.442C150 121.302 149.302 122 148.442 122ZM137.886 118.885H146.885V49.319H137.886V118.885Z" fill="#289B36"/>
<path d="M109.571 37.003H103.472C102.754 32.7066 100.96 28.5892 98.6278 25.0089L102.933 20.7124C104.01 19.6383 104.01 18.0271 103.113 16.7741L97.9101 11.4035C96.8336 10.3294 95.2191 10.3294 93.9633 11.2244L89.6577 15.5209C86.249 13.1936 82.1228 11.4035 77.8169 10.5085V4.42176C77.8169 2.81084 76.5611 1.55762 75.1259 1.55762H67.591C66.1558 1.73672 64.9 2.81084 64.9 4.42176V10.6874C60.5944 11.4035 56.468 13.1936 52.8799 15.5209L48.5741 11.2244C47.4976 10.1503 45.8831 10.1503 44.6272 11.0453L39.2452 16.2368C38.1688 17.3109 38.1688 18.9221 39.0658 20.1751L43.3714 24.4716C41.0391 27.8728 39.2452 31.9904 38.3481 36.2866H32.2484C30.8132 36.466 29.5574 37.5401 29.5574 39.1513V46.6701C29.7367 48.1022 30.8132 49.3554 32.4277 49.3554H38.5275C39.2452 53.6519 41.0391 57.7693 43.3714 61.3496L39.0658 65.646C37.9894 66.7202 37.9894 68.3313 38.8865 69.5843L44.0891 74.9549C45.1656 76.029 46.7801 76.029 48.036 75.134L52.3415 70.8375C55.7503 73.1649 59.8765 74.9549 64.1823 75.8499V81.9364C64.3616 83.3685 65.4381 84.6217 67.0527 84.6217H74.5876C76.0228 84.4426 77.2786 83.3685 77.2786 81.7576V75.6711C81.5841 74.9549 85.7106 73.1649 89.2987 70.8375L93.6043 75.134C94.6807 76.2081 96.2953 76.2081 97.5511 75.3131L102.933 70.1216C104.01 69.0475 104.01 67.4363 103.112 66.1834L98.8069 61.8869C101.139 58.4857 102.933 54.368 103.83 50.0718H109.93C111.365 49.8927 112.621 48.8186 112.621 47.2077V39.6889C112.442 38.256 111.365 37.003 109.571 37.003Z" fill="#3BB54A"/>
<path d="M71.0893 67.7491C84.7084 67.7491 95.7488 56.7086 95.7488 43.0895C95.7488 29.4704 84.7084 18.4299 71.0893 18.4299C57.4702 18.4299 46.4297 29.4704 46.4297 43.0895C46.4297 56.7086 57.4702 67.7491 71.0893 67.7491Z" fill="white"/>
<path d="M76.2808 62.8172C62.6617 62.8172 51.6212 51.7767 51.6212 38.1576C51.6212 32.4122 53.5859 27.126 56.8804 22.9336C50.5585 27.3983 46.4297 34.7616 46.4297 43.0896C46.4297 56.7086 57.4702 67.7491 71.0893 67.7491C78.9629 67.7491 85.9748 64.0588 90.4896 58.3136C86.4732 61.1502 81.5719 62.8172 76.2808 62.8172Z" fill="#C9FFD0"/>
<path d="M71.0893 16.8726C56.6334 16.8726 44.8723 28.6336 44.8723 43.0896C44.8723 57.5455 56.6334 69.3066 71.0893 69.3066C85.5453 69.3066 97.3064 57.5455 97.3064 43.0896C97.3064 28.6336 85.5453 16.8726 71.0893 16.8726ZM48.0409 44.647H50.4477C51.3077 44.647 52.0052 43.9496 52.0052 43.0896C52.0052 42.2296 51.3077 41.5321 50.4477 41.5321H48.0409C48.3888 36.3323 50.4641 31.5982 53.6976 27.9006L55.3921 29.5951C55.9933 30.1957 56.9939 30.196 57.5946 29.5948C58.2028 28.9866 58.2028 28.0005 57.5946 27.3923L55.9001 25.6978C59.598 22.4643 64.3321 20.389 69.5319 20.0412V22.448C69.5319 23.3079 70.2294 24.0054 71.0893 24.0054C71.9493 24.0054 72.6468 23.3079 72.6468 22.448V20.0412C77.8466 20.389 82.5807 22.4643 86.2786 25.6978L84.5841 27.3923C83.9759 28.0008 83.9759 28.9869 84.5841 29.5948C85.185 30.1957 86.1857 30.1957 86.7866 29.5951L88.4811 27.9006C91.7146 31.5982 93.7899 36.3323 94.1377 41.5321H91.731C90.871 41.5321 90.1735 42.2296 90.1735 43.0896C90.1735 43.9496 90.871 44.647 91.731 44.647H94.1377C93.7899 49.8468 91.7146 54.5809 88.4811 58.2786L86.7866 56.5841C86.1781 55.9762 85.192 55.9759 84.5841 56.5843C83.9759 57.1925 83.9759 58.1786 84.5841 58.7868L86.2786 60.4813C82.581 63.7149 77.8468 65.7902 72.6468 66.138V63.7312C72.6468 62.8712 71.9493 62.1738 71.0893 62.1738C70.2294 62.1738 69.5319 62.8712 69.5319 63.7312V66.138C64.3321 65.7902 59.598 63.7149 55.9001 60.4813L57.5946 58.7868C58.2028 58.1784 58.2028 57.1923 57.5946 56.5843C56.9861 55.9759 56 55.9762 55.3921 56.5841L53.6976 58.2786C50.4641 54.5809 48.3888 49.8468 48.0409 44.647Z" fill="#289B36"/>
<path d="M71.0893 46.464C72.953 46.464 74.4638 44.9532 74.4638 43.0896C74.4638 41.2259 72.953 39.7151 71.0893 39.7151C69.2256 39.7151 67.7148 41.2259 67.7148 43.0896C67.7148 44.9532 69.2256 46.464 71.0893 46.464Z" fill="white"/>
<path d="M72.6467 38.4137V28.7677C72.6467 27.9077 71.9493 27.2102 71.0893 27.2102C70.2293 27.2102 69.5318 27.9077 69.5318 28.7677V38.4137C68.0642 38.9038 66.9037 40.0646 66.4133 41.5322H60.8182C59.9582 41.5322 59.2607 42.2297 59.2607 43.0897C59.2607 43.9496 59.9582 44.6471 60.8182 44.6471H66.4133C67.0672 46.6048 68.9143 48.0216 71.0893 48.0216C73.8089 48.0216 76.0212 45.8092 76.0212 43.0897C76.0212 40.9147 74.6045 39.0678 72.6467 38.4137ZM71.0893 44.9067C70.0873 44.9067 69.2723 44.0914 69.2723 43.0897C69.2723 42.088 70.0873 41.2727 71.0893 41.2727C72.0913 41.2727 72.9063 42.088 72.9063 43.0897C72.9063 44.0914 72.0913 44.9067 71.0893 44.9067Z" fill="#289B36"/>
<path d="M134.166 32.7063C142.051 32.7063 148.442 26.3144 148.442 18.4297C148.442 10.5449 142.051 4.15308 134.166 4.15308C126.281 4.15308 119.889 10.5449 119.889 18.4297C119.889 26.3144 126.281 32.7063 134.166 32.7063Z" fill="#3BB54A"/>
<path d="M134.166 34.2638C125.435 34.2638 118.332 27.1608 118.332 18.4297C118.332 9.6987 125.435 2.5957 134.166 2.5957C142.897 2.5957 150 9.6987 150 18.4297C150 27.1608 142.897 34.2638 134.166 34.2638ZM134.166 5.7106C127.152 5.7106 121.447 11.4163 121.447 18.4297C121.447 25.4432 127.152 31.1489 134.166 31.1489C141.179 31.1489 146.885 25.4432 146.885 18.4297C146.885 11.4163 141.179 5.7106 134.166 5.7106Z" fill="#289B36"/>
<path d="M135.174 17.0711V12.8572C136.036 13.0295 136.856 13.4046 137.56 13.9505C138.281 14.4517 139.35 13.7626 139.359 12.9273C139.36 12.6339 139.249 12.3572 139.038 12.1408C137.955 11.1998 136.583 10.6254 135.162 10.5158V9.13956C135.162 8.64014 134.761 8.23364 134.287 8.23364C133.762 8.23364 133.327 8.58433 133.319 9.13956V10.4665C130.524 10.7157 128.583 12.5288 128.583 14.9096C128.583 17.7574 130.812 18.6376 133.319 19.3315V24.1611C132.173 23.9771 131.104 23.4831 130.214 22.7244C129.473 22.1263 128.346 22.8059 128.358 23.7162C128.356 24.0093 128.468 24.2862 128.676 24.5007C129.96 25.6734 131.609 26.3623 133.331 26.449V27.7202C133.388 28.2279 133.721 28.657 134.277 28.6276C134.772 28.6276 135.174 28.2204 135.174 27.7202V26.4194C138.709 26.1323 139.972 23.8138 139.972 21.7214C139.972 18.6862 137.514 17.7201 135.174 17.0711ZM137.415 22.0012C137.415 22.8993 136.823 23.9304 135.174 24.1876V19.8904C136.535 20.3007 137.427 20.8334 137.415 22.0012ZM133.331 12.7547V16.5873C132.092 16.2093 131.165 15.808 131.165 14.757C131.165 13.6798 132.01 12.9049 133.331 12.7547Z" fill="white"/>
<path d="M74.5879 86.1787H67.053C64.8201 86.1787 62.6252 84.254 62.6252 81.936V77.0923C59.062 76.2121 55.6208 74.7572 52.5474 72.8322L49.1364 76.2357C47.5145 77.8542 44.5089 77.6076 42.9707 76.0379L37.7678 70.6676C36.166 69.0167 36.405 66.1001 37.9658 64.5429L41.3917 61.1243C39.4008 57.8311 37.9835 54.344 37.2408 50.9122H32.4278C30.195 50.9124 28 48.9877 28 46.6697V39.1508C28 36.9159 29.9323 34.7292 32.2485 34.7292H37.1067C37.9884 31.1754 39.4452 27.7436 41.3733 24.6775L37.9658 21.2778C36.3503 19.669 36.5779 16.6387 38.1639 15.1161L43.5459 9.92457C43.6012 9.8711 43.6606 9.82178 43.7232 9.77739C45.6485 8.40528 48.0955 8.54649 49.6739 10.1221L53.1037 13.5443C56.4055 11.556 59.9014 10.1411 63.3424 9.39997V4.42159C63.3424 2.1594 65.048 0.305 67.398 0.0119404C67.4621 0.00415319 67.5264 0 67.5908 0H75.1257C77.4684 0 79.3742 1.98367 79.3742 4.42159V9.26525C82.9374 10.1457 86.3786 11.6004 89.4519 13.5254L92.863 10.1218C92.9237 10.0614 92.9894 10.0058 93.0592 9.95598C94.9842 8.58361 97.4315 8.72534 99.01 10.3007C99.0162 10.3067 99.0224 10.3132 99.0287 10.3194L104.231 15.69C104.285 15.7453 104.334 15.8044 104.379 15.867C105.757 17.7912 105.615 20.2369 104.033 21.8144L100.607 25.233C102.598 28.5262 104.016 32.0136 104.758 35.4451H109.571C111.978 35.4451 113.868 37.1103 114.167 39.4945C114.175 39.5586 114.178 39.6233 114.178 39.6879V47.2067C114.178 49.4417 112.246 51.6283 109.93 51.6283H105.072C104.19 55.1822 102.733 58.6142 100.805 61.6801L104.213 65.0802C104.273 65.1407 104.329 65.2061 104.379 65.276C105.756 67.2002 105.614 69.6459 104.033 71.2233C104.027 71.2296 104.021 71.2358 104.014 71.2418L98.6323 76.4333C96.9798 78.0291 94.0635 77.7919 92.5042 76.2357L89.0745 72.8135C85.7727 74.8018 82.2768 76.2168 78.8361 76.9581V81.7569C78.8361 84.0191 77.1304 85.8735 74.7802 86.1665C74.7166 86.1746 74.6523 86.1787 74.5879 86.1787ZM65.7398 81.8223C65.8273 82.3181 66.1855 83.0638 67.0527 83.0638H74.4747C74.9723 82.9766 75.7215 82.6199 75.7215 81.7571V75.6706C75.7215 74.909 76.2723 74.2591 77.0235 74.1342C80.833 73.5008 84.7848 71.9086 88.4515 69.5304C89.068 69.1312 89.8792 69.216 90.3991 69.7347L94.7047 74.0312C95.2768 74.602 96.0443 74.4345 96.565 74.1002L101.841 69.011C102.398 68.4472 102.236 67.696 101.909 67.1815L97.7069 62.9891C97.1756 62.4588 97.0979 61.625 97.5226 61.006C99.8118 57.6671 101.466 53.7758 102.306 49.7529C102.457 49.0313 103.093 48.5139 103.831 48.5139H109.817C110.315 48.4267 111.064 48.0701 111.064 47.2072V39.8018C110.998 39.4273 110.721 38.5608 109.571 38.5608H103.472C102.71 38.5608 102.061 38.0108 101.935 37.2598C101.301 33.4597 99.7056 29.5175 97.3227 25.8591C96.9206 25.2418 97.006 24.427 97.5275 23.9068L101.833 19.6103C102.402 19.0424 102.236 18.2803 101.902 17.7635L96.802 12.4988C96.2343 11.9402 95.4772 12.1024 94.959 12.4313L90.7578 16.6231C90.2278 17.1516 89.3974 17.229 88.7794 16.8069C85.4329 14.5222 81.5326 12.8715 77.4998 12.0328C76.7772 11.8828 76.2593 11.2461 76.2593 10.5081V4.42159C76.2593 3.63975 75.6732 3.11489 75.1257 3.11489H67.7037C67.2061 3.20211 66.4573 3.55877 66.4573 4.42159V10.6875C66.4573 11.449 65.9064 12.099 65.1552 12.2239C61.346 12.857 57.3942 14.449 53.7272 16.8274C53.111 17.2269 52.2995 17.142 51.7796 16.6231L47.4741 12.3267C46.902 11.7559 46.1344 11.9233 45.6137 12.2576L40.3378 17.3468C39.781 17.9104 39.9422 18.6621 40.2701 19.1768L44.4716 23.369C45.0029 23.899 45.0805 24.733 44.6559 25.3521C42.3667 28.691 40.7127 32.5823 39.8727 36.6052C39.7219 37.3271 39.0856 37.8441 38.3479 37.8441H32.3616C31.864 37.9314 31.1149 38.2878 31.1149 39.1508V46.5557C31.2024 47.0515 31.5606 47.7973 32.4278 47.7973H38.5276C39.2886 47.7973 39.9383 48.3473 40.0637 49.0982C40.6984 52.8984 42.2935 56.8406 44.6766 60.499C45.0787 61.1163 44.9933 61.9311 44.4718 62.4513L40.1663 66.7477C39.597 67.3157 39.7637 68.0778 40.0972 68.5949L45.1973 73.8593C45.7653 74.4179 46.5222 74.2557 47.0403 73.9268L51.242 69.7344C51.7718 69.2057 52.6022 69.1283 53.2205 69.5506C56.5669 71.8354 60.4673 73.4863 64.5001 74.3247C65.2227 74.4748 65.7406 75.1115 65.7406 75.8495V81.8223H65.7398Z" fill="#289B36"/>
</svg>
