<svg width="199" height="79" viewBox="0 0 199 79" fill="none" xmlns="http://www.w3.org/2000/svg">
<g clip-path="url(#clip0_122_776)">
<path d="M9.12411 68.2059L0 44.6624H3.14625C5.50593 44.6624 7.62964 46.1485 8.41621 48.3386L12.8996 60.5406L17.3043 47.9475C18.0123 45.9921 19.9 44.6624 22.0237 44.6624H25.6419L17.619 65.4683C16.9897 67.1109 15.4166 68.2059 13.6075 68.2059H9.12411Z" fill="white"/>
<path d="M41.6877 68.6752C39.4067 68.6752 37.519 68.4406 35.9458 67.893C34.3727 67.3455 33.0356 66.7198 32.013 65.8594C30.9905 65.0772 30.1253 64.2168 29.496 63.2782C28.8668 62.3396 28.3948 61.5574 28.0802 60.697C27.7656 59.9148 27.5296 58.9762 27.3723 57.9594H32.013C33.5075 57.9594 34.766 58.8198 35.4739 60.0712C35.5526 60.2277 35.6312 60.3841 35.7099 60.4623C36.1818 61.1663 36.8897 61.7138 37.8336 62.1831C38.7775 62.6524 40.1146 62.8871 41.7664 62.8871C43.8114 62.8871 45.3059 62.496 46.2498 61.6356C47.1937 60.8534 47.6656 59.8366 47.6656 58.7415C47.6656 57.7247 47.2723 56.9425 46.5644 56.3168C45.8565 55.691 44.6767 55.3 43.1822 54.9871L38.5415 54.1267C36.6537 53.8138 34.9233 53.2663 33.3502 52.5623C31.7771 51.8584 30.4399 50.8415 29.4174 49.5901C28.3948 48.3386 27.9229 46.696 27.9229 44.7406C27.9229 42.7069 28.4735 40.9861 29.496 39.5C30.5972 38.0138 32.013 36.8405 33.9794 36.0584C35.8672 35.2762 38.1482 34.8069 40.7439 34.8069C43.1822 34.8069 45.2273 35.1198 46.8004 35.8237C48.3735 36.5277 49.7107 37.3099 50.6545 38.2485C51.5984 39.1871 52.3063 40.2039 52.7782 41.1425C53.2502 42.0811 53.5648 43.2544 53.8794 44.5841H49.1601C47.9802 44.5841 46.7217 44.0366 46.0925 42.9415C46.0138 42.7851 45.9352 42.6287 45.7779 42.5505C45.3846 42.0029 44.7553 41.5336 43.8901 41.1425C43.0249 40.7514 41.9237 40.5168 40.5079 40.5168C38.5415 40.5168 37.1257 40.9079 36.2605 41.7683C35.3952 42.5505 34.9233 43.4891 34.9233 44.4277C34.9233 45.3663 35.3952 46.1485 36.2605 46.696C37.1257 47.2435 38.3055 47.6346 39.7213 47.8693L44.6767 48.8079C46.5644 49.1208 48.2948 49.6683 49.868 50.4505C51.4411 51.2326 52.6996 52.2495 53.5648 53.5009C54.5087 54.7524 54.9806 56.395 54.9806 58.2722C54.9806 60.2277 54.43 61.9485 53.4075 63.5128C52.385 65.0772 50.8905 66.3287 48.8454 67.1891C47.115 68.2059 44.598 68.6752 41.6877 68.6752Z" fill="white"/>
<path d="M68.9813 44.2712C70.5544 44.2712 71.8916 44.5059 72.9141 44.9752C73.9366 45.4445 74.7232 45.992 75.2738 46.5396C75.8244 47.0871 76.139 47.4782 76.2963 47.7128H76.6896V44.6623H80.1505C82.1955 44.6623 83.8473 46.3049 83.8473 48.3386V68.2059H79.7572C78.1054 68.2059 76.6896 66.8762 76.6896 65.1554H76.2963C76.139 65.3901 75.8244 65.7811 75.2738 66.3287C74.7232 66.8762 73.9366 67.4237 72.9141 67.893C71.8916 68.3623 70.5544 68.597 68.9813 68.597C67.1722 68.597 65.5204 68.2841 64.1833 67.5802C62.8461 66.8762 61.6663 65.9376 60.8011 64.7643C59.8572 63.591 59.2279 62.2613 58.756 60.8534C58.2841 59.3673 58.0481 57.9594 58.0481 56.395C58.0481 54.9089 58.2841 53.4227 58.756 51.9366C59.2279 50.4505 59.8572 49.199 60.8011 48.0257C61.7449 46.8524 62.8461 45.9138 64.1833 45.2099C65.5204 44.5841 67.0935 44.2712 68.9813 44.2712ZM71.0264 49.6683C69.7679 49.6683 68.6667 49.9811 67.8014 50.6851C66.9362 51.3891 66.307 52.1712 65.9137 53.2663C65.5204 54.2831 65.2845 55.3782 65.2845 56.4732C65.2845 57.5683 65.5204 58.6633 65.9137 59.6802C66.307 60.697 67.0149 61.5574 67.8014 62.2613C68.6667 62.9653 69.7679 63.2782 71.0264 63.2782C72.2849 63.2782 73.386 62.9653 74.2513 62.2613C75.1165 61.5574 75.7457 60.7752 76.139 59.6802C76.5323 58.6633 76.7682 57.5683 76.7682 56.4732C76.7682 55.3782 76.5323 54.2831 76.139 53.2663C75.7457 52.2495 75.0378 51.3891 74.2513 50.6851C73.386 50.0594 72.2849 49.6683 71.0264 49.6683Z" fill="white"/>
<path d="M88.6455 64.4514V34.494H92.3424C94.2301 34.494 95.7246 35.9802 95.7246 37.8574V68.1277H92.3424C90.2973 68.2059 88.6455 66.5633 88.6455 64.4514Z" fill="white"/>
<path d="M112.95 68.6752C110.197 68.6752 107.838 68.1277 105.871 66.9544C103.905 65.7811 102.489 64.295 101.466 62.496C100.444 60.6188 99.9719 58.6633 99.9719 56.4732C99.9719 54.2831 100.444 52.3277 101.466 50.4504C102.489 48.5732 103.983 47.0871 105.871 45.992C107.838 44.8188 110.197 44.2712 112.95 44.2712C115.703 44.2712 118.063 44.8188 120.029 45.992C121.996 47.1653 123.411 48.6514 124.434 50.4504C125.456 52.3277 125.928 54.2831 125.928 56.4732C125.928 58.6633 125.456 60.6188 124.434 62.496C123.411 64.3732 121.917 65.8594 120.029 66.9544C118.063 68.0495 115.703 68.6752 112.95 68.6752ZM112.95 63.1217C114.209 63.1217 115.231 62.8089 116.096 62.1831C116.962 61.5574 117.591 60.7752 118.063 59.7584C118.535 58.7415 118.771 57.6465 118.771 56.4732C118.771 55.3 118.535 54.1267 118.063 53.1099C117.591 52.093 116.962 51.3108 116.096 50.6851C115.231 50.0594 114.209 49.7465 112.95 49.7465C111.692 49.7465 110.669 50.0594 109.725 50.6851C108.86 51.3108 108.152 52.093 107.759 53.1099C107.287 54.1267 107.051 55.2217 107.051 56.4732C107.051 57.6465 107.287 58.7415 107.759 59.7584C108.231 60.7752 108.86 61.6356 109.725 62.1831C110.59 62.8089 111.692 63.1217 112.95 63.1217Z" fill="white"/>
<path d="M129.625 68.2059V47.8692C129.625 46.0702 131.041 44.6623 132.85 44.6623H136.783V48.0257H137.019C137.334 47.5564 137.727 47.0088 138.277 46.4613C138.828 45.8356 139.536 45.3663 140.48 44.897C141.424 44.4276 142.604 44.193 144.019 44.193C145.986 44.193 147.559 44.5841 148.739 45.4445C149.919 46.3049 150.862 47.3999 151.413 48.6514C151.964 49.9811 152.278 51.3108 152.278 52.797V63.9821C152.278 66.2504 150.39 68.1277 148.109 68.1277H145.121V54.0484C145.121 52.9534 144.806 51.9366 144.177 51.0762C143.547 50.2158 142.525 49.8247 141.109 49.8247C140.008 49.8247 139.221 50.0593 138.592 50.5286C137.963 50.9979 137.491 51.6237 137.255 52.3277C136.94 53.0316 136.862 53.8138 136.862 54.6742V64.8425C136.862 66.6415 135.367 68.1277 133.558 68.1277H129.625V68.2059Z" fill="white"/>
<path d="M142.604 78.6871C145.042 78.1396 147.323 77.201 149.368 75.9495C162.582 69.0663 172.965 59.4455 179.808 48.8079C189.168 45.1317 199 46.1485 199 46.1485C190.977 63.6693 170.055 76.7317 144.649 79C144.649 79 143.941 79.0782 143.39 79C142.997 78.9218 142.604 78.6871 142.604 78.6871Z" fill="#F1F1F1" fill-opacity="0.5"/>
<path d="M160.537 63.904C167.459 53.0317 171.47 41.3772 172.65 30.2703C179.336 22.7614 188.617 19.3198 188.617 19.3198C189.011 29.0971 185.864 39.3436 179.808 48.8079C178.785 49.199 177.841 49.6683 176.819 50.1376C169.111 54.2832 163.683 59.8367 160.537 63.904Z" fill="#F7F7F7" fill-opacity="0.5"/>
<path d="M161.56 56.7079C161.56 57.0208 161.481 57.3337 161.481 57.6465C161.953 53.501 161.402 49.3554 159.908 45.5228C158.256 41.4554 155.424 31.7564 157.234 20.1802C158.964 8.83861 167.223 0 167.223 0C171.942 8.60396 173.751 19.1634 172.65 30.2703C171.942 31.0525 171.234 31.9129 170.605 32.8515C163.762 42.3941 161.953 52.3277 161.56 56.7079Z" fill="url(#paint0_linear_122_776)" fill-opacity="0.5"/>
<path opacity="0.7" d="M158.02 67.502C157.941 67.6585 157.784 67.8931 157.627 68.0496C157.863 67.6585 158.177 67.1892 158.413 66.7981C158.413 66.7199 158.492 66.7199 158.492 66.6416C158.571 66.4852 158.649 66.3288 158.728 66.1723C158.807 66.0941 158.807 66.0159 158.885 65.8595C158.964 65.7812 158.964 65.6248 159.043 65.5466C159.121 65.3902 159.2 65.2337 159.278 65.0773C159.278 64.9991 159.357 64.9991 159.357 64.9209C159.436 64.7644 159.514 64.5298 159.593 64.3733C160.301 62.809 160.773 61.1664 161.088 59.602C161.088 59.5238 161.088 59.5238 161.088 59.4456C161.088 59.2892 161.166 59.0545 161.166 58.8981C161.166 58.8199 161.166 58.6634 161.245 58.5852C161.245 58.507 161.245 58.3506 161.324 58.2723C161.324 58.0377 161.402 57.8812 161.402 57.6466V57.5684C161.402 57.2555 161.481 56.9426 161.481 56.6298C161.874 52.2496 163.683 42.2377 170.448 32.7733C171.077 31.9129 171.785 31.0525 172.493 30.1921C171.392 41.2991 167.301 52.9535 160.38 63.8258C159.436 65.3119 158.571 66.5634 158.02 67.502Z" fill="white"/>
<path opacity="0.7" d="M150.626 75.1673L150.705 75.0891C150.862 75.0109 151.02 74.8544 151.177 74.7762C151.256 74.698 151.334 74.6198 151.413 74.6198C151.492 74.5416 151.57 74.4633 151.728 74.3851C151.885 74.3069 151.964 74.2287 152.121 74.0722C152.2 74.0722 152.2 73.994 152.278 73.994C152.436 73.8376 152.593 73.7594 152.75 73.6029C154.087 72.5079 155.267 71.3346 156.29 70.0049L156.368 69.9267C156.447 69.7703 156.604 69.6138 156.683 69.4574C156.762 69.3792 156.84 69.301 156.919 69.1445C156.998 69.0663 157.076 68.9881 157.076 68.9099C157.234 68.7534 157.312 68.597 157.391 68.3624C157.391 68.3624 157.391 68.3624 157.391 68.2841C157.469 68.2059 157.469 68.1277 157.548 68.0495C157.705 67.893 157.784 67.6584 157.941 67.502C158.571 66.5633 159.357 65.3119 160.458 63.9039C163.683 59.7584 169.032 54.2831 176.74 50.2158C177.684 49.6683 178.707 49.2772 179.729 48.8861C173.043 59.4455 162.582 69.1445 149.368 75.9495C149.761 75.7148 150.233 75.402 150.626 75.1673Z" fill="white"/>
<path d="M152.672 27.0634V30.4267H148.11V34.9634H144.806V30.4267H140.244V27.0634H144.806V22.5267H148.11V27.0634H152.672Z" fill="#F9C52C"/>
</g>
<rect x="0.5" y="0.5" width="198" height="78" stroke="black"/>
<defs>
<linearGradient id="paint0_linear_122_776" x1="167.734" y1="6.92095" x2="152.71" y2="104.934" gradientUnits="userSpaceOnUse">
<stop stop-color="#F4F4F4"/>
<stop offset="1" stop-color="#ECECEC"/>
</linearGradient>
<clipPath id="clip0_122_776">
<rect width="199" height="79" fill="white"/>
</clipPath>
</defs>
</svg>
