<svg width="149" height="59" viewBox="0 0 149 59" fill="none" xmlns="http://www.w3.org/2000/svg">
<g clip-path="url(#clip0_51_3874)">
<path d="M6.83162 50.9386L0 33.3555H2.35573C4.12253 33.3555 5.71265 34.4654 6.30158 36.101L9.6585 45.2139L12.9565 35.8089C13.4866 34.3485 14.9 33.3555 16.4901 33.3555H19.1992L13.1921 48.8941C12.7209 50.1208 11.5431 50.9386 10.1885 50.9386H6.83162Z" fill="url(#paint0_linear_51_3874)"/>
<path d="M31.2135 51.2892C29.5055 51.2892 28.0921 51.1139 26.9142 50.705C25.7364 50.2961 24.7352 49.8288 23.9696 49.1862C23.204 48.6021 22.5561 47.9595 22.085 47.2585C21.6138 46.5575 21.2605 45.9733 21.0249 45.3308C20.7893 44.7466 20.6127 44.0456 20.4949 43.2862H23.9696C25.0886 43.2862 26.0308 43.9288 26.5609 44.8634C26.6198 44.9803 26.6787 45.0971 26.7376 45.1555C27.0909 45.6813 27.621 46.0902 28.3277 46.4407C29.0344 46.7912 30.0356 46.9664 31.2723 46.9664C32.8036 46.9664 33.9225 46.6743 34.6293 46.0318C35.336 45.4476 35.6893 44.6882 35.6893 43.8704C35.6893 43.111 35.3949 42.5268 34.8648 42.0595C34.3348 41.5921 33.4514 41.3001 32.3324 41.0664L28.8577 40.4238C27.4443 40.1902 26.1486 39.7813 24.9708 39.2555C23.7929 38.7298 22.7917 37.9704 22.0261 37.0357C21.2605 36.1011 20.9071 34.8743 20.9071 33.4139C20.9071 31.8951 21.3194 30.61 22.085 29.5001C22.9095 28.3902 23.9696 27.5139 25.4419 26.9298C26.8553 26.3456 28.5633 25.9951 30.5067 25.9951C32.3324 25.9951 33.8636 26.2288 35.0415 26.7545C36.2194 27.2803 37.2206 27.8644 37.9273 28.5654C38.634 29.2664 39.164 30.0258 39.5174 30.7268C39.8708 31.4278 40.1063 32.304 40.3419 33.2971H36.8083C35.9249 33.2971 34.9826 32.8882 34.5115 32.0704C34.4526 31.9535 34.3937 31.8367 34.2759 31.7783C33.9814 31.3694 33.5103 31.0189 32.8625 30.7268C32.2146 30.4347 31.3901 30.2595 30.3301 30.2595C28.8577 30.2595 27.7976 30.5516 27.1498 31.1941C26.502 31.7783 26.1486 32.4793 26.1486 33.1803C26.1486 33.8813 26.502 34.4654 27.1498 34.8743C27.7976 35.2832 28.681 35.5753 29.7411 35.7506L33.4514 36.4516C34.8648 36.6852 36.1605 37.0941 37.3384 37.6783C38.5162 38.2624 39.4585 39.0219 40.1063 39.9565C40.8131 40.8912 41.1664 42.1179 41.1664 43.5199C41.1664 44.9803 40.7542 46.2654 39.9886 47.4337C39.2229 48.6021 38.104 49.5367 36.5727 50.1793C35.2771 50.9387 33.3925 51.2892 31.2135 51.2892Z" fill="url(#paint1_linear_51_3874)"/>
<path d="M51.6493 33.0635C52.8272 33.0635 53.8283 33.2387 54.594 33.5892C55.3596 33.9397 55.9485 34.3486 56.3608 34.7575C56.773 35.1664 57.0086 35.4585 57.1264 35.6338H57.4208V33.3556H60.0121C61.5434 33.3556 62.7801 34.5823 62.7801 36.1011V50.9387H59.7177C58.4809 50.9387 57.4208 49.9457 57.4208 48.6605H57.1264C57.0086 48.8358 56.773 49.1278 56.3608 49.5367C55.9485 49.9457 55.3596 50.3546 54.594 50.7051C53.8283 51.0556 52.8272 51.2308 51.6493 51.2308C50.2948 51.2308 49.058 50.9971 48.0568 50.4714C47.0556 49.9457 46.1722 49.2447 45.5244 48.3684C44.8177 47.4922 44.3465 46.4991 43.9932 45.4476C43.6398 44.3377 43.4631 43.2863 43.4631 42.1179C43.4631 41.008 43.6398 39.8981 43.9932 38.7882C44.3465 37.6783 44.8177 36.7437 45.5244 35.8674C46.2311 34.9912 47.0556 34.2902 48.0568 33.7645C49.058 33.2971 50.2359 33.0635 51.6493 33.0635ZM53.1805 37.0942C52.2382 37.0942 51.4137 37.3278 50.7659 37.8536C50.1181 38.3793 49.6469 38.9635 49.3525 39.7813C49.058 40.5407 48.8813 41.3585 48.8813 42.1763C48.8813 42.9942 49.058 43.812 49.3525 44.5714C49.6469 45.3308 50.177 45.9734 50.7659 46.4991C51.4137 47.0249 52.2382 47.2585 53.1805 47.2585C54.1228 47.2585 54.9473 47.0249 55.5951 46.4991C56.243 45.9734 56.7141 45.3892 57.0086 44.5714C57.3031 43.812 57.4797 42.9942 57.4797 42.1763C57.4797 41.3585 57.3031 40.5407 57.0086 39.7813C56.7141 39.0219 56.1841 38.3793 55.5951 37.8536C54.9473 37.3863 54.1228 37.0942 53.1805 37.0942Z" fill="url(#paint2_linear_51_3874)"/>
<path d="M66.3728 48.1347V25.7615H69.1408C70.5542 25.7615 71.6732 26.8714 71.6732 28.2734V50.8803H69.1408C67.6096 50.9387 66.3728 49.712 66.3728 48.1347Z" fill="url(#paint3_linear_51_3874)"/>
<path d="M84.5707 51.2892C82.5094 51.2892 80.7426 50.8803 79.2703 50.0041C77.7979 49.1278 76.7379 48.0179 75.9722 46.6744C75.2066 45.2724 74.8533 43.812 74.8533 42.1763C74.8533 40.5407 75.2066 39.0803 75.9722 37.6783C76.7379 36.2763 77.8568 35.1664 79.2703 34.3486C80.7426 33.4724 82.5094 33.0635 84.5707 33.0635C86.6319 33.0635 88.3987 33.4724 89.8711 34.3486C91.3434 35.2249 92.4035 36.3348 93.1691 37.6783C93.9347 39.0803 94.2881 40.5407 94.2881 42.1763C94.2881 43.812 93.9347 45.2724 93.1691 46.6744C92.4035 48.0764 91.2845 49.1863 89.8711 50.0041C88.3987 50.8219 86.6319 51.2892 84.5707 51.2892ZM84.5707 47.1417C85.513 47.1417 86.2786 46.908 86.9264 46.4407C87.5742 45.9734 88.0454 45.3892 88.3987 44.6298C88.7521 43.8704 88.9288 43.0526 88.9288 42.1763C88.9288 41.3001 88.7521 40.4239 88.3987 39.6645C88.0454 38.9051 87.5742 38.3209 86.9264 37.8536C86.2786 37.3863 85.513 37.1526 84.5707 37.1526C83.6284 37.1526 82.8628 37.3863 82.156 37.8536C81.5082 38.3209 80.9782 38.9051 80.6837 39.6645C80.3303 40.4239 80.1537 41.2417 80.1537 42.1763C80.1537 43.0526 80.3303 43.8704 80.6837 44.6298C81.0371 45.3892 81.5082 46.0318 82.156 46.4407C82.8039 46.908 83.6284 47.1417 84.5707 47.1417Z" fill="url(#paint4_linear_51_3874)"/>
<path d="M97.0562 50.9388V35.7507C97.0562 34.4071 98.1162 33.3556 99.4708 33.3556H102.415V35.8675H102.592C102.828 35.517 103.122 35.1081 103.534 34.6992C103.947 34.2319 104.477 33.8814 105.183 33.5309C105.89 33.1804 106.774 33.0051 107.834 33.0051C109.306 33.0051 110.484 33.2972 111.367 33.9398C112.251 34.5824 112.957 35.4002 113.37 36.3348C113.782 37.3279 114.017 38.321 114.017 39.4309V47.7843C114.017 49.4784 112.604 50.8804 110.896 50.8804H108.658V40.3655C108.658 39.5477 108.423 38.7883 107.951 38.1457C107.48 37.5031 106.715 37.2111 105.655 37.2111C104.83 37.2111 104.241 37.3863 103.77 37.7368C103.299 38.0873 102.945 38.5546 102.769 39.0804C102.533 39.6061 102.474 40.1903 102.474 40.8329V48.4269C102.474 49.7705 101.355 50.8804 100.001 50.8804H97.0562V50.9388Z" fill="url(#paint5_linear_51_3874)"/>
<path d="M106.773 58.7665C108.599 58.3575 110.307 57.6566 111.838 56.7219C121.732 51.5813 129.506 44.3962 134.63 36.4516C141.638 33.7061 149 34.4655 149 34.4655C142.993 47.5506 127.327 57.3061 108.305 59.0001C108.305 59.0001 107.775 59.0585 107.362 59.0001C107.068 58.9417 106.773 58.7665 106.773 58.7665Z" fill="url(#paint6_linear_51_3874)"/>
<path d="M120.201 47.7257C125.384 39.6059 128.387 30.902 129.271 22.6069C134.277 16.999 141.226 14.4287 141.226 14.4287C141.521 21.7307 139.165 29.3832 134.63 36.4515C133.864 36.7436 133.158 37.0941 132.392 37.4446C126.621 40.5406 122.557 44.6881 120.201 47.7257Z" fill="url(#paint7_linear_51_3874)"/>
<path d="M120.967 42.3515C120.967 42.5851 120.908 42.8188 120.908 43.0525C121.261 39.9564 120.849 36.8604 119.73 33.998C118.493 30.9604 116.373 23.7168 117.728 15.0713C119.023 6.60099 125.207 0 125.207 0C128.741 6.42574 130.095 14.3119 129.271 22.6069C128.741 23.1911 128.211 23.8337 127.739 24.5347C122.616 31.6614 121.261 39.0802 120.967 42.3515Z" fill="url(#paint8_linear_51_3874)"/>
<path d="M118.316 50.4129C118.258 50.5298 118.14 50.705 118.022 50.8218C118.199 50.5298 118.434 50.1793 118.611 49.8872C118.611 49.8288 118.67 49.8288 118.67 49.7704C118.729 49.6535 118.788 49.5367 118.846 49.4199C118.905 49.3615 118.905 49.303 118.964 49.1862C119.023 49.1278 119.023 49.011 119.082 48.9525C119.141 48.8357 119.2 48.7189 119.259 48.602C119.259 48.5436 119.318 48.5436 119.318 48.4852C119.377 48.3684 119.435 48.1931 119.494 48.0763C120.024 46.908 120.378 45.6813 120.613 44.5129C120.613 44.4545 120.613 44.4545 120.613 44.3961C120.613 44.2793 120.672 44.104 120.672 43.9872C120.672 43.9288 120.672 43.812 120.731 43.7535C120.731 43.6951 120.731 43.5783 120.79 43.5199C120.79 43.3446 120.849 43.2278 120.849 43.0525V42.9941C120.849 42.7605 120.908 42.5268 120.908 42.2931C121.202 39.0219 122.557 31.5446 127.622 24.4763C128.093 23.8337 128.623 23.1912 129.153 22.5486C128.328 30.8436 125.266 39.5476 120.083 47.6674C119.377 48.7773 118.729 49.712 118.316 50.4129Z" fill="url(#paint9_linear_51_3874)"/>
<path d="M112.781 56.1377L112.84 56.0793C112.957 56.0209 113.075 55.9041 113.193 55.8457C113.252 55.7872 113.311 55.7288 113.37 55.7288C113.429 55.6704 113.487 55.612 113.605 55.5536C113.723 55.4952 113.782 55.4367 113.9 55.3199C113.959 55.3199 113.959 55.2615 114.017 55.2615C114.135 55.1447 114.253 55.0862 114.371 54.9694C115.372 54.1516 116.255 53.2754 117.021 52.2823L117.08 52.2239C117.139 52.107 117.257 51.9902 117.315 51.8734C117.374 51.815 117.433 51.7565 117.492 51.6397C117.551 51.5813 117.61 51.5229 117.61 51.4645C117.728 51.3476 117.787 51.2308 117.845 51.0556C117.845 51.0556 117.845 51.0556 117.845 50.9971C117.904 50.9387 117.904 50.8803 117.963 50.8219C118.081 50.7051 118.14 50.5298 118.258 50.413C118.729 49.712 119.318 48.7773 120.142 47.7259C122.557 44.6298 126.562 40.5407 132.333 37.5031C133.04 37.0942 133.806 36.8021 134.571 36.51C129.565 44.3961 121.732 51.6397 111.838 56.7219C112.133 56.5466 112.486 56.313 112.781 56.1377Z" fill="url(#paint10_linear_51_3874)"/>
<path d="M114.312 20.2118V22.7237H110.896V26.1119H108.423V22.7237H105.007V20.2118H108.423V16.8237H110.896V20.2118H114.312Z" fill="#F9C52C"/>
</g>
<defs>
<linearGradient id="paint0_linear_51_3874" x1="-1.00425" y1="42.2058" x2="115.801" y2="41.2162" gradientUnits="userSpaceOnUse">
<stop stop-color="#7EC243"/>
<stop offset="1" stop-color="#3DB54A"/>
</linearGradient>
<linearGradient id="paint1_linear_51_3874" x1="-1.03186" y1="38.9453" x2="115.773" y2="37.9557" gradientUnits="userSpaceOnUse">
<stop stop-color="#7EC243"/>
<stop offset="1" stop-color="#3DB54A"/>
</linearGradient>
<linearGradient id="paint2_linear_51_3874" x1="-1.00105" y1="42.5937" x2="115.804" y2="41.6042" gradientUnits="userSpaceOnUse">
<stop stop-color="#7EC243"/>
<stop offset="1" stop-color="#3DB54A"/>
</linearGradient>
<linearGradient id="paint3_linear_51_3874" x1="-1.03187" y1="38.9313" x2="115.773" y2="37.9417" gradientUnits="userSpaceOnUse">
<stop stop-color="#7EC243"/>
<stop offset="1" stop-color="#3DB54A"/>
</linearGradient>
<linearGradient id="paint4_linear_51_3874" x1="-0.998687" y1="42.8681" x2="115.806" y2="41.8785" gradientUnits="userSpaceOnUse">
<stop stop-color="#7EC243"/>
<stop offset="1" stop-color="#3DB54A"/>
</linearGradient>
<linearGradient id="paint5_linear_51_3874" x1="-0.998264" y1="42.909" x2="115.807" y2="41.9194" gradientUnits="userSpaceOnUse">
<stop stop-color="#7EC243"/>
<stop offset="1" stop-color="#3DB54A"/>
</linearGradient>
<linearGradient id="paint6_linear_51_3874" x1="134.114" y1="6.47238" x2="122.922" y2="79.6798" gradientUnits="userSpaceOnUse">
<stop stop-color="#B5DAA2"/>
<stop offset="1" stop-color="#E9F7FE"/>
</linearGradient>
<linearGradient id="paint7_linear_51_3874" x1="134.805" y1="6.57774" x2="123.612" y2="79.7856" gradientUnits="userSpaceOnUse">
<stop stop-color="#B5DAA2"/>
<stop offset="1" stop-color="#E9F7FE"/>
</linearGradient>
<linearGradient id="paint8_linear_51_3874" x1="125.589" y1="5.16881" x2="114.397" y2="78.3766" gradientUnits="userSpaceOnUse">
<stop stop-color="#B5DAA2"/>
<stop offset="1" stop-color="#E9F7FE"/>
</linearGradient>
<linearGradient id="paint9_linear_51_3874" x1="118.03" y1="36.7428" x2="129.248" y2="36.7428" gradientUnits="userSpaceOnUse">
<stop stop-color="#7EC243"/>
<stop offset="1" stop-color="#3DB54A"/>
</linearGradient>
<linearGradient id="paint10_linear_51_3874" x1="111.839" y1="46.6102" x2="134.615" y2="46.6102" gradientUnits="userSpaceOnUse">
<stop stop-color="#7EC243"/>
<stop offset="1" stop-color="#3DB54A"/>
</linearGradient>
<clipPath id="clip0_51_3874">
<rect width="149" height="59" fill="white"/>
</clipPath>
</defs>
</svg>
